BioRhyme-Bold.ufo
<glyph name="hyphen" format="1">
  <advance width="241"/>
  <unicode hex="002D"/>
  <outline>
    <contour>
      <point x="19" y="228" type="line"/>
      <point x="19" y="130" type="line"/>
      <point x="222" y="130" type="line"/>
      <point x="222" y="228" type="line"/>
    </contour>
  </outline>
</glyph>
<glyph name="period" format="1">
  <advance width="232"/>
  <unicode hex="002E"/>
  <outline>
    <contour>
      <point x="163" y="-10"/>
      <point x="196" y="17"/>
      <point x="196" y="54" type="curve"/>
      <point x="196" y="94"/>
      <point x="163" y="121"/>
      <point x="116" y="121" type="curve"/>
      <point x="72" y="121"/>
      <point x="36" y="94"/>
      <point x="36" y="54" type="curve"/>
      <point x="36" y="17"/>
      <point x="72" y="-10"/>
      <point x="116" y="-10" type="curve"/>
    </contour>
  </outline>
</glyph>
<glyph name="zero" format="1">
  <advance width="574"/>
  <unicode hex="0030"/>
  <outline>
    <contour>
      <point x="412" y="-10"/>
      <point x="549" y="69"/>
      <point x="549" y="235" type="curve"/>
      <point x="549" y="401"/>
      <point x="413" y="480"/>
      <point x="287" y="480" type="curve" smooth="yes"/>
      <point x="162" y="480"/>
      <point x="25" y="401"/>
      <point x="25" y="235" type="curve"/>
      <point x="25" y="69"/>
      <point x="160" y="-10"/>
      <point x="287" y="-10" type="curve"/>
    </contour>
    <contour>
      <point x="206" y="80"/>
      <point x="148" y="140"/>
      <point x="148" y="235" type="curve"/>
      <point x="148" y="330"/>
      <point x="207" y="390"/>
      <point x="287" y="390" type="curve" smooth="yes"/>
      <point x="369" y="390"/>
      <point x="426" y="330"/>
      <point x="426" y="235" type="curve"/>
      <point x="426" y="140"/>
      <point x="367" y="80"/>
      <point x="287" y="80" type="curve" smooth="yes"/>
    </contour>
    <contour>
      <point x="328" y="170"/>
      <point x="355" y="197"/>
      <point x="355" y="234" type="curve"/>
      <point x="355" y="274"/>
      <point x="328" y="301"/>
      <point x="286" y="301" type="curve"/>
      <point x="247" y="301"/>
      <point x="217" y="274"/>
      <point x="217" y="234" type="curve"/>
      <point x="217" y="197"/>
      <point x="247" y="170"/>
      <point x="286" y="170" type="curve"/>
    </contour>
  </outline>
</glyph>
<glyph name="one" format="1">
  <advance width="367"/>
  <unicode hex="0031"/>
  <outline>
    <contour>
      <point x="138" y="289"/>
      <point x="168" y="333"/>
      <point x="187" y="389" type="curve"/>
      <point x="158" y="468" type="line"/>
      <point x="141" y="414"/>
      <point x="94" y="381"/>
      <point x="34" y="369" type="curve"/>
      <point x="71" y="270" type="line"/>
    </contour>
    <contour>
      <point x="345" y="0" type="line"/>
      <point x="345" y="96" type="line"/>
      <point x="58" y="96" type="line"/>
      <point x="58" y="0" type="line"/>
    </contour>
    <contour>
      <point x="274" y="30" type="line"/>
      <point x="274" y="468" type="line"/>
      <point x="158" y="468" type="line"/>
      <point x="158" y="30" type="line"/>
    </contour>
  </outline>
</glyph>
<glyph name="two" format="1">
  <advance width="485"/>
  <unicode hex="0032"/>
  <outline>
    <contour>
      <point x="291" y="172" type="line" smooth="yes"/>
      <point x="387" y="228"/>
      <point x="427" y="274"/>
      <point x="427" y="336" type="curve" smooth="yes"/>
      <point x="427" y="430"/>
      <point x="342" y="480"/>
      <point x="238" y="480" type="curve" smooth="yes"/>
      <point x="153" y="480"/>
      <point x="73" y="436"/>
      <point x="17" y="377" type="curve"/>
      <point x="81" y="304" type="line"/>
      <point x="127" y="352"/>
      <point x="173" y="384"/>
      <point x="232" y="384" type="curve" smooth="yes"/>
      <point x="280" y="384"/>
      <point x="306" y="355"/>
      <point x="306" y="324" type="curve" smooth="yes"/>
      <point x="306" y="299"/>
      <point x="284" y="278"/>
      <point x="225" y="239" type="curve" smooth="yes"/>
      <point x="11" y="96" type="line"/>
      <point x="79" y="48" type="line"/>
    </contour>
    <contour>
      <point x="455" y="0" type="line"/>
      <point x="455" y="163" type="line"/>
      <point x="359" y="163" type="line"/>
      <point x="359" y="96" type="line"/>
      <point x="12" y="96" type="line"/>
      <point x="12" y="0" type="line"/>
    </contour>
  </outline>
</glyph>
<glyph name="colon" format="1">
  <advance width="260"/>
  <unicode hex="003A"/>
  <outline>
    <contour>
      <point x="177" y="234"/>
      <point x="210" y="261"/>
      <point x="210" y="298" type="curve"/>
      <point x="210" y="337"/>
      <point x="177" y="365"/>
      <point x="130" y="365" type="curve"/>
      <point x="86" y="365"/>
      <point x="50" y="337"/>
      <point x="50" y="298" type="curve"/>
      <point x="50" y="261"/>
      <point x="86" y="234"/>
      <point x="130" y="234" type="curve"/>
    </contour>
    <contour>
      <point x="177" y="-10"/>
      <point x="210" y="17"/>
      <point x="210" y="54" type="curve"/>
      <point x="210" y="94"/>
      <point x="177" y="121"/>
      <point x="130" y="121" type="curve"/>
      <point x="86" y="121"/>
      <point x="50" y="94"/>
      <point x="50" y="54" type="curve"/>
      <point x="50" y="17"/>
      <point x="86" y="-10"/>
      <point x="130" y="-10" type="curve"/>
    </contour>
  </outline>
</glyph>
<glyph name="semicolon" format="1">
  <advance width="263"/>
  <unicode hex="003B"/>
  <outline>
    <contour>
      <point x="163" y="-97"/>
      <point x="213" y="-39"/>
      <point x="213" y="26" type="curve" smooth="yes"/>
      <point x="213" y="78"/>
      <point x="178" y="120"/>
      <point x="126" y="120" type="curve" smooth="yes"/>
      <point x="83" y="120"/>
      <point x="50" y="91"/>
      <point x="50" y="53" type="curve" smooth="yes"/>
      <point x="50" y="15"/>
      <point x="80" y="-9"/>
      <point x="118" y="-9" type="curve" smooth="yes"/>
      <point x="132" y="-9"/>
      <point x="146" y="-7"/>
      <point x="154" y="-4" type="curve"/>
      <point x="144" y="-42"/>
      <point x="114" y="-79"/>
      <point x="75" y="-120" type="curve"/>
      <point x="104" y="-149" type="line"/>
    </contour>
    <contour>
      <point x="177" y="234"/>
      <point x="210" y="261"/>
      <point x="210" y="298" type="curve"/>
      <point x="210" y="337"/>
      <point x="177" y="365"/>
      <point x="130" y="365" type="curve"/>
      <point x="86" y="365"/>
      <point x="50" y="337"/>
      <point x="50" y="298" type="curve"/>
      <point x="50" y="261"/>
      <point x="86" y="234"/>
      <point x="130" y="234" type="curve"/>
    </contour>
  </outline>
</glyph>
<glyph name="B" format="1">
  <advance width="573"/>
  <unicode hex="0042"/>
  <outline>
    <contour>
      <point x="342" y="0" type="line" smooth="yes"/>
      <point x="478" y="0"/>
      <point x="548" y="55"/>
      <point x="548" y="147" type="curve" smooth="yes"/>
      <point x="548" y="269"/>
      <point x="420" y="287"/>
      <point x="329" y="287" type="curve"/>
      <point x="330" y="240" type="line"/>
      <point x="397" y="240"/>
      <point x="507" y="277"/>
      <point x="507" y="379" type="curve" smooth="yes"/>
      <point x="507" y="460"/>
      <point x="447" y="520"/>
      <point x="325" y="520" type="curve" smooth="yes"/>
      <point x="25" y="520" type="line"/>
      <point x="25" y="424" type="line"/>
      <point x="319" y="424" type="line" smooth="yes"/>
      <point x="348" y="424"/>
      <point x="385" y="411"/>
      <point x="385" y="363" type="curve" smooth="yes"/>
      <point x="385" y="317"/>
      <point x="350" y="302"/>
      <point x="296" y="302" type="curve" smooth="yes"/>
      <point x="191" y="302" type="line"/>
      <point x="191" y="215" type="line"/>
      <point x="342" y="215" type="line" smooth="yes"/>
      <point x="399" y="215"/>
      <point x="426" y="197"/>
      <point x="426" y="157" type="curve" smooth="yes"/>
      <point x="426" y="113"/>
      <point x="391" y="96"/>
      <point x="333" y="96" type="curve" smooth="yes"/>
      <point x="25" y="96" type="line"/>
      <point x="25" y="0" type="line"/>
    </contour>
    <contour>
      <point x="233" y="53" type="line"/>
      <point x="233" y="464" type="line"/>
      <point x="110" y="464" type="line"/>
      <point x="110" y="53" type="line"/>
    </contour>
    <contour>
      <point x="272" y="527" type="move" name="top"/>
    </contour>
    <contour>
      <point x="272" y="0" type="move" name="bottom"/>
    </contour>
  </outline>
</glyph>
<glyph name="D" format="1">
  <advance width="619"/>
  <unicode hex="0044"/>
  <outline>
    <contour>
      <point x="285" y="0" type="line" smooth="yes"/>
      <point x="429" y="0"/>
      <point x="594" y="73"/>
      <point x="594" y="260" type="curve" smooth="yes"/>
      <point x="594" y="447"/>
      <point x="429" y="520"/>
      <point x="285" y="520" type="curve" smooth="yes"/>
      <point x="25" y="520" type="line"/>
      <point x="25" y="424" type="line"/>
      <point x="271" y="424" type="line" smooth="yes"/>
      <point x="349" y="424"/>
      <point x="466" y="404"/>
      <point x="466" y="260" type="curve" smooth="yes"/>
      <point x="466" y="116"/>
      <point x="349" y="98"/>
      <point x="271" y="98" type="curve" smooth="yes"/>
      <point x="25" y="98" type="line"/>
      <point x="25" y="0" type="line"/>
    </contour>
    <contour>
      <point x="233" y="56" type="line"/>
      <point x="233" y="464" type="line"/>
      <point x="110" y="464" type="line"/>
      <point x="110" y="56" type="line"/>
    </contour>
    <contour>
      <point x="300" y="263" type="move" name="center"/>
    </contour>
    <contour>
      <point x="300" y="0" type="move" name="bottom"/>
    </contour>
    <contour>
      <point x="300" y="527" type="move" name="top"/>
    </contour>
  </outline>
</glyph>
<glyph name="E" format="1">
  <advance width="612"/>
  <unicode hex="0045"/>
  <outline>
    <contour>
      <point x="562" y="0" type="line"/>
      <point x="562" y="193" type="line"/>
      <point x="454" y="193" type="line"/>
      <point x="454" y="96" type="line"/>
      <point x="25" y="96" type="line"/>
      <point x="25" y="0" type="line"/>
    </contour>
    <contour>
      <point x="231" y="53" type="line"/>
      <point x="231" y="458" type="line"/>
      <point x="109" y="458" type="line"/>
      <point x="109" y="53" type="line"/>
    </contour>
    <contour>
      <point x="359" y="209" type="line"/>
      <point x="359" y="299" type="line"/>
      <point x="153" y="299" type="line"/>
      <point x="153" y="209" type="line"/>
    </contour>
    <contour>
      <point x="399" y="151" type="line"/>
      <point x="399" y="357" type="line"/>
      <point x="309" y="357" type="line"/>
      <point x="309" y="151" type="line"/>
    </contour>
    <contour>
      <point x="562" y="327" type="line"/>
      <point x="562" y="520" type="line"/>
      <point x="25" y="520" type="line"/>
      <point x="25" y="424" type="line"/>
      <point x="454" y="424" type="line"/>
      <point x="454" y="327" type="line"/>
    </contour>
    <contour>
      <point x="562" y="0" type="move" name="ogonek"/>
    </contour>
    <contour>
      <point x="329" y="0" type="move" name="bottom"/>
    </contour>
    <contour>
      <point x="305" y="520" type="move" name="top"/>
    </contour>
  </outline>
</glyph>
<glyph name="F" format="1">
  <advance width="561"/>
  <unicode hex="0046"/>
  <outline>
    <contour>
      <point x="536" y="320" type="line"/>
      <point x="536" y="520" type="line"/>
      <point x="25" y="520" type="line"/>
      <point x="25" y="424" type="line"/>
      <point x="428" y="424" type="line"/>
      <point x="428" y="320" type="line"/>
    </contour>
    <contour>
      <point x="321" y="0" type="line"/>
      <point x="321" y="96" type="line"/>
      <point x="25" y="96" type="line"/>
      <point x="25" y="0" type="line"/>
    </contour>
    <contour>
      <point x="232" y="53" type="line"/>
      <point x="232" y="464" type="line"/>
      <point x="110" y="464" type="line"/>
      <point x="110" y="53" type="line"/>
    </contour>
    <contour>
      <point x="347" y="208" type="line"/>
      <point x="347" y="298" type="line"/>
      <point x="154" y="298" type="line"/>
      <point x="154" y="208" type="line"/>
    </contour>
    <contour>
      <point x="387" y="149" type="line"/>
      <point x="387" y="356" type="line"/>
      <point x="297" y="356" type="line"/>
      <point x="297" y="149" type="line"/>
    </contour>
    <contour>
      <point x="305" y="527" type="move" name="top"/>
    </contour>
    <contour>
      <point x="305" y="0" type="move" name="bottom"/>
    </contour>
  </outline>
</glyph>
<glyph name="H" format="1">
  <advance width="698"/>
  <unicode hex="0048"/>
  <outline>
    <contour>
      <point x="551" y="220" type="line"/>
      <point x="551" y="310" type="line"/>
      <point x="148" y="310" type="line"/>
      <point x="148" y="220" type="line"/>
    </contour>
    <contour>
      <point x="317" y="0" type="line"/>
      <point x="317" y="96" type="line"/>
      <point x="25" y="96" type="line"/>
      <point x="25" y="0" type="line"/>
    </contour>
    <contour>
      <point x="233" y="53" type="line"/>
      <point x="233" y="464" type="line"/>
      <point x="110" y="464" type="line"/>
      <point x="110" y="53" type="line"/>
    </contour>
    <contour>
      <point x="317" y="424" type="line"/>
      <point x="317" y="520" type="line"/>
      <point x="25" y="520" type="line"/>
      <point x="25" y="424" type="line"/>
    </contour>
    <contour>
      <point x="673" y="0" type="line"/>
      <point x="673" y="96" type="line"/>
      <point x="382" y="96" type="line"/>
      <point x="382" y="0" type="line"/>
    </contour>
    <contour>
      <point x="589" y="56" type="line"/>
      <point x="589" y="467" type="line"/>
      <point x="466" y="467" type="line"/>
      <point x="466" y="56" type="line"/>
    </contour>
    <contour>
      <point x="673" y="424" type="line"/>
      <point x="673" y="520" type="line"/>
      <point x="382" y="520" type="line"/>
      <point x="382" y="424" type="line"/>
    </contour>
    <contour>
      <point x="348" y="257" type="move" name="center"/>
    </contour>
    <contour>
      <point x="348" y="0" type="move" name="bottom"/>
    </contour>
    <contour>
      <point x="348" y="527" type="move" name="top"/>
    </contour>
  </outline>
</glyph>
<glyph name="S" format="1">
  <advance width="549"/>
  <unicode hex="0053"/>
  <outline>
    <contour>
      <point x="447" y="-10"/>
      <point x="524" y="45"/>
      <point x="524" y="138" type="curve" smooth="yes"/>
      <point x="524" y="236"/>
      <point x="428" y="281"/>
      <point x="313" y="314" type="curve" smooth="yes"/>
      <point x="217" y="341"/>
      <point x="184" y="358"/>
      <point x="184" y="387" type="curve" smooth="yes"/>
      <point x="184" y="417"/>
      <point x="218" y="434"/>
      <point x="265" y="434" type="curve" smooth="yes"/>
      <point x="324" y="434"/>
      <point x="391" y="398"/>
      <point x="425" y="332" type="curve"/>
      <point x="497" y="336" type="line"/>
      <point x="497" y="520" type="line"/>
      <point x="388" y="520" type="line"/>
      <point x="388" y="405" type="line"/>
      <point x="447" y="395" type="line"/>
      <point x="398" y="489"/>
      <point x="324" y="530"/>
      <point x="234" y="530" type="curve" smooth="yes"/>
      <point x="143" y="530"/>
      <point x="56" y="473"/>
      <point x="56" y="381" type="curve" smooth="yes"/>
      <point x="56" y="299"/>
      <point x="110" y="246"/>
      <point x="230" y="212" type="curve" smooth="yes"/>
      <point x="352" y="178"/>
      <point x="396" y="155"/>
      <point x="396" y="123" type="curve" smooth="yes"/>
      <point x="396" y="97"/>
      <point x="372" y="84"/>
      <point x="336" y="84" type="curve" smooth="yes"/>
      <point x="276" y="84"/>
      <point x="186" y="128"/>
      <point x="131" y="194" type="curve"/>
      <point x="55" y="190" type="line"/>
      <point x="55" y="1" type="line"/>
      <point x="165" y="1" type="line"/>
      <point x="165" y="114" type="line"/>
      <point x="98" y="121" type="line"/>
      <point x="169" y="50"/>
      <point x="247" y="-10"/>
      <point x="344" y="-10" type="curve" smooth="yes"/>
    </contour>
    <contour>
      <point x="282" y="530" type="move" name="top"/>
    </contour>
    <contour>
      <point x="302" y="-10" type="move" name="bottom"/>
    </contour>
  </outline>
</glyph>
<glyph name="U" format="1">
  <advance width="671"/>
  <unicode hex="0055"/>
  <outline>
    <contour>
      <point x="475" y="-10"/>
      <point x="582" y="79"/>
      <point x="582" y="206" type="curve" smooth="yes"/>
      <point x="582" y="468" type="line"/>
      <point x="460" y="468" type="line"/>
      <point x="462" y="215" type="line" smooth="yes"/>
      <point x="462" y="140"/>
      <point x="406" y="91"/>
      <point x="336" y="91" type="curve" smooth="yes"/>
      <point x="265" y="91"/>
      <point x="213" y="139"/>
      <point x="213" y="213" type="curve" smooth="yes"/>
      <point x="214" y="468" type="line"/>
      <point x="90" y="468" type="line"/>
      <point x="90" y="206" type="line" smooth="yes"/>
      <point x="90" y="79"/>
      <point x="191" y="-10"/>
      <point x="336" y="-10" type="curve" smooth="yes"/>
    </contour>
    <contour>
      <point x="294" y="424" type="line"/>
      <point x="294" y="520" type="line"/>
      <point x="5" y="520" type="line"/>
      <point x="5" y="424" type="line"/>
    </contour>
    <contour>
      <point x="666" y="424" type="line"/>
      <point x="666" y="520" type="line"/>
      <point x="380" y="520" type="line"/>
      <point x="380" y="424" type="line"/>
    </contour>
    <contour>
      <point x="356" y="-9" type="move" name="ogonek"/>
    </contour>
    <contour>
      <point x="337" y="510" type="move" name="top"/>
    </contour>
    <contour>
      <point x="657" y="490" type="move" name="topright"/>
    </contour>
    <contour>
      <point x="336" y="-10" type="move" name="bottom"/>
    </contour>
  </outline>
</glyph>
<glyph name="V" format="1">
  <advance width="629"/>
  <unicode hex="0056"/>
  <outline>
    <contour>
      <point x="0" y="520" type="line"/>
      <point x="0" y="424" type="line"/>
      <point x="273" y="424" type="line"/>
      <point x="273" y="520" type="line"/>
    </contour>
    <contour>
      <point x="358" y="520" type="line"/>
      <point x="358" y="424" type="line"/>
      <point x="629" y="424" type="line"/>
      <point x="629" y="520" type="line"/>
    </contour>
    <contour>
      <point x="346" y="-10" type="line"/>
      <point x="590" y="507" type="line"/>
      <point x="470" y="507" type="line"/>
      <point x="322" y="152" type="line"/>
      <point x="169" y="507" type="line"/>
      <point x="39" y="507" type="line"/>
      <point x="282" y="-10" type="line"/>
    </contour>
    <contour>
      <point x="314" y="490" type="move" name="top"/>
    </contour>
    <contour>
      <point x="314" y="0" type="move" name="bottom"/>
    </contour>
  </outline>
</glyph>
<glyph name="W" format="1">
  <advance width="873"/>
  <unicode hex="0057"/>
  <outline>
    <contour>
      <point x="612" y="-10" type="line"/>
      <point x="853" y="507" type="line"/>
      <point x="739" y="507" type="line"/>
      <point x="590" y="154" type="line"/>
      <point x="434" y="507" type="line"/>
      <point x="316" y="507" type="line"/>
      <point x="548" y="-10" type="line"/>
    </contour>
    <contour>
      <point x="300" y="-10" type="line"/>
      <point x="544" y="507" type="line"/>
      <point x="430" y="507" type="line"/>
      <point x="278" y="154" type="line"/>
      <point x="152" y="507" type="line"/>
      <point x="20" y="507" type="line"/>
      <point x="235" y="-10" type="line"/>
    </contour>
    <contour>
      <point x="251" y="424" type="line"/>
      <point x="251" y="520" type="line"/>
      <point x="0" y="520" type="line"/>
      <point x="0" y="424" type="line"/>
    </contour>
    <contour>
      <point x="579" y="424" type="line"/>
      <point x="579" y="520" type="line"/>
      <point x="312" y="520" type="line"/>
      <point x="312" y="424" type="line"/>
    </contour>
    <contour>
      <point x="873" y="424" type="line"/>
      <point x="873" y="520" type="line"/>
      <point x="640" y="520" type="line"/>
      <point x="640" y="424" type="line"/>
    </contour>
    <contour>
      <point x="426" y="520" type="move" name="top"/>
    </contour>
    <contour>
      <point x="415" y="0" type="move" name="bottom"/>
    </contour>
  </outline>
</glyph>
<glyph name="Z" format="1">
  <advance width="579"/>
  <unicode hex="005A"/>
  <outline>
    <contour>
      <point x="539" y="0" type="line"/>
      <point x="539" y="200" type="line"/>
      <point x="431" y="200" type="line"/>
      <point x="431" y="96" type="line"/>
      <point x="121" y="96" type="line"/>
      <point x="83" y="31" type="line"/>
      <point x="89" y="21" type="line"/>
      <point x="146" y="32" type="line"/>
      <point x="535" y="434" type="line"/>
      <point x="535" y="520" type="line"/>
      <point x="45" y="520" type="line"/>
      <point x="45" y="320" type="line"/>
      <point x="153" y="320" type="line"/>
      <point x="153" y="424" type="line"/>
      <point x="462" y="424" type="line"/>
      <point x="499" y="493" type="line"/>
      <point x="494" y="499" type="line"/>
      <point x="437" y="488" type="line"/>
      <point x="48" y="86" type="line"/>
      <point x="48" y="0" type="line"/>
    </contour>
    <contour>
      <point x="309" y="520" type="move" name="top"/>
    </contour>
    <contour>
      <point x="309" y="0" type="move" name="bottom"/>
    </contour>
  </outline>
</glyph>
<glyph name="bracketleft" format="1">
  <advance width="276"/>
  <unicode hex="005B"/>
  <outline>
    <contour>
      <point x="81" y="-131" type="line"/>
      <point x="185" y="-131" type="line"/>
      <point x="185" y="649" type="line"/>
      <point x="81" y="649" type="line"/>
    </contour>
    <contour>
      <point x="113" y="553" type="line"/>
      <point x="267" y="553" type="line"/>
      <point x="267" y="649" type="line"/>
      <point x="113" y="649" type="line"/>
    </contour>
    <contour>
      <point x="113" y="-131" type="line"/>
      <point x="267" y="-131" type="line"/>
      <point x="267" y="-35" type="line"/>
      <point x="113" y="-35" type="line"/>
    </contour>
  </outline>
</glyph>
<glyph name="backslash" format="1">
  <advance width="421"/>
  <unicode hex="005C"/>
  <outline>
    <contour>
      <point x="411" y="-79" type="line"/>
      <point x="119" y="561" type="line"/>
      <point x="17" y="561" type="line"/>
      <point x="309" y="-79" type="line"/>
    </contour>
  </outline>
</glyph>
<glyph name="bracketright" format="1">
  <advance width="276"/>
  <unicode hex="005D"/>
  <outline>
    <contour>
      <point x="195" y="-131" type="line"/>
      <point x="195" y="649" type="line"/>
      <point x="91" y="649" type="line"/>
      <point x="91" y="-131" type="line"/>
    </contour>
    <contour>
      <point x="163" y="-131" type="line"/>
      <point x="163" y="-35" type="line"/>
      <point x="9" y="-35" type="line"/>
      <point x="9" y="-131" type="line"/>
    </contour>
    <contour>
      <point x="163" y="553" type="line"/>
      <point x="163" y="649" type="line"/>
      <point x="9" y="649" type="line"/>
      <point x="9" y="553" type="line"/>
    </contour>
  </outline>
</glyph>
<glyph name="underscore" format="1">
  <advance width="329"/>
  <unicode hex="005F"/>
  <outline>
    <contour>
      <point x="-10" y="-68" type="line"/>
      <point x="-10" y="-164" type="line"/>
      <point x="339" y="-164" type="line"/>
      <point x="339" y="-68" type="line"/>
    </contour>
  </outline>
</glyph>
<glyph name="f" format="1">
  <advance width="339"/>
  <unicode hex="0066"/>
  <outline>
    <contour>
      <point x="204" y="50" type="line"/>
      <point x="204" y="403" type="line"/>
      <point x="204" y="427"/>
      <point x="227" y="454"/>
      <point x="272" y="454" type="curve" smooth="yes"/>
      <point x="303" y="454"/>
      <point x="324" y="446"/>
      <point x="350" y="432" type="curve"/>
      <point x="390" y="524" type="line"/>
      <point x="349" y="542"/>
      <point x="312" y="555"/>
      <point x="257" y="555" type="curve" smooth="yes"/>
      <point x="157" y="555"/>
      <point x="91" y="493"/>
      <point x="91" y="401" type="curve"/>
      <point x="91" y="50" type="line"/>
    </contour>
    <contour>
      <point x="287" y="0" type="line"/>
      <point x="287" y="90" type="line"/>
      <point x="20" y="90" type="line"/>
      <point x="20" y="0" type="line"/>
    </contour>
    <contour>
      <point x="311" y="267" type="line"/>
      <point x="311" y="357" type="line"/>
      <point x="20" y="357" type="line"/>
      <point x="20" y="267" type="line"/>
    </contour>
  </outline>
</glyph>
<glyph name="i" format="1">
  <advance width="280"/>
  <unicode hex="0069"/>
  <outline>
    <contour>
      <point x="206" y="30" type="line"/>
      <point x="206" y="357" type="line"/>
      <point x="91" y="357" type="line"/>
      <point x="91" y="30" type="line"/>
    </contour>
    <contour>
      <point x="278" y="0" type="line"/>
      <point x="278" y="90" type="line"/>
      <point x="20" y="90" type="line"/>
      <point x="20" y="0" type="line"/>
    </contour>
    <contour>
      <point x="174" y="267" type="line"/>
      <point x="174" y="357" type="line"/>
      <point x="20" y="357" type="line"/>
      <point x="20" y="267" type="line"/>
    </contour>
    <contour>
      <point x="186" y="412"/>
      <point x="217" y="437"/>
      <point x="217" y="470" type="curve"/>
      <point x="217" y="505"/>
      <point x="186" y="530"/>
      <point x="142" y="530" type="curve"/>
      <point x="101" y="530"/>
      <point x="68" y="505"/>
      <point x="68" y="470" type="curve"/>
      <point x="68" y="437"/>
      <point x="101" y="412"/>
      <point x="142" y="412" type="curve"/>
    </contour>
    <contour>
      <point x="278" y="0" type="move" name="ogonek"/>
    </contour>
    <contour>
      <point x="130" y="0" type="move" name="bottom"/>
    </contour>
    <contour>
      <point x="140" y="357" type="move" name="top"/>
    </contour>
  </outline>
</glyph>
<glyph name="n" format="1">
  <advance width="564"/>
  <unicode hex="006E"/>
  <outline>
    <contour>
      <point x="498" y="0" type="line"/>
      <point x="498" y="189" type="line" smooth="yes"/>
      <point x="498" y="306"/>
      <point x="450" y="366"/>
      <point x="359" y="366" type="curve" smooth="yes"/>
      <point x="287" y="366"/>
      <point x="237" y="321"/>
      <point x="166" y="227" type="curve"/>
      <point x="166" y="137" type="line"/>
      <point x="220" y="217"/>
      <point x="267" y="258"/>
      <point x="316" y="258" type="curve" smooth="yes"/>
      <point x="359" y="258"/>
      <point x="383" y="228"/>
      <point x="383" y="189" type="curve" smooth="yes"/>
      <point x="383" y="0" type="line"/>
    </contour>
    <contour>
      <point x="263" y="0" type="line"/>
      <point x="263" y="90" type="line"/>
      <point x="20" y="90" type="line"/>
      <point x="20" y="0" type="line"/>
    </contour>
    <contour>
      <point x="206" y="0" type="line"/>
      <point x="206" y="357" type="line"/>
      <point x="91" y="357" type="line"/>
      <point x="91" y="0" type="line"/>
    </contour>
    <contour>
      <point x="178" y="267" type="line"/>
      <point x="178" y="357" type="line"/>
      <point x="20" y="357" type="line"/>
      <point x="20" y="267" type="line"/>
    </contour>
    <contour>
      <point x="559" y="0" type="line"/>
      <point x="559" y="90" type="line"/>
      <point x="326" y="90" type="line"/>
      <point x="326" y="0" type="line"/>
    </contour>
    <contour>
      <point x="303" y="367" type="move" name="top"/>
    </contour>
    <contour>
      <point x="303" y="0" type="move" name="bottom"/>
    </contour>
  </outline>
</glyph>
<glyph name="o" format="1">
  <advance width="452"/>
  <unicode hex="006F"/>
  <outline>
    <contour>
      <point x="336" y="-11"/>
      <point x="432" y="63"/>
      <point x="432" y="178" type="curve" smooth="yes"/>
      <point x="432" y="293"/>
      <point x="328" y="367"/>
      <point x="226" y="367" type="curve" smooth="yes"/>
      <point x="120" y="367"/>
      <point x="20" y="293"/>
      <point x="20" y="178" type="curve" smooth="yes"/>
      <point x="20" y="63"/>
      <point x="120" y="-11"/>
      <point x="226" y="-11" type="curve"/>
    </contour>
    <contour>
      <point x="179" y="79"/>
      <point x="140" y="116"/>
      <point x="140" y="178" type="curve" smooth="yes"/>
      <point x="140" y="240"/>
      <point x="179" y="277"/>
      <point x="226" y="277" type="curve" smooth="yes"/>
      <point x="272" y="277"/>
      <point x="311" y="240"/>
      <point x="311" y="178" type="curve" smooth="yes"/>
      <point x="311" y="116"/>
      <point x="272" y="79"/>
      <point x="226" y="79" type="curve" smooth="yes"/>
    </contour>
    <contour>
      <point x="226" y="-11" type="move" name="bottom"/>
    </contour>
    <contour>
      <point x="243" y="-10" type="move" name="ogonek"/>
    </contour>
    <contour>
      <point x="226" y="367" type="move" name="top"/>
    </contour>
    <contour>
      <point x="638" y="357" type="move" name="topright"/>
    </contour>
    <contour>
      <point x="225" y="179" type="move" name="center"/>
    </contour>
  </outline>
</glyph>
<glyph name="p" format="1">
  <advance width="516"/>
  <unicode hex="0070"/>
  <outline>
    <contour>
      <point x="416" y="-11"/>
      <point x="496" y="71"/>
      <point x="496" y="178" type="curve" smooth="yes"/>
      <point x="496" y="287"/>
      <point x="419" y="367"/>
      <point x="331" y="367" type="curve" smooth="yes"/>
      <point x="253" y="367"/>
      <point x="168" y="292"/>
      <point x="133" y="173" type="curve"/>
      <point x="133" y="89" type="line"/>
      <point x="166" y="197"/>
      <point x="237" y="268"/>
      <point x="290" y="269" type="curve" smooth="yes"/>
      <point x="343" y="270"/>
      <point x="376" y="231"/>
      <point x="376" y="179" type="curve" smooth="yes"/>
      <point x="376" y="124"/>
      <point x="338" y="84"/>
      <point x="275" y="84" type="curve" smooth="yes"/>
      <point x="222" y="84"/>
      <point x="167" y="130"/>
      <point x="135" y="173" type="curve"/>
      <point x="135" y="97" type="line"/>
      <point x="166" y="55"/>
      <point x="214" y="-11"/>
      <point x="305" y="-11" type="curve" smooth="yes"/>
    </contour>
    <contour>
      <point x="265" y="-165" type="line"/>
      <point x="265" y="-75" type="line"/>
      <point x="8" y="-75" type="line"/>
      <point x="8" y="-165" type="line"/>
    </contour>
    <contour>
      <point x="195" y="-137" type="line"/>
      <point x="195" y="357" type="line"/>
      <point x="79" y="357" type="line"/>
      <point x="79" y="-137" type="line"/>
    </contour>
    <contour>
      <point x="186" y="267" type="line"/>
      <point x="187" y="357" type="line"/>
      <point x="8" y="357" type="line"/>
      <point x="8" y="267" type="line"/>
    </contour>
    <contour>
      <point x="314" y="363" type="move" name="top"/>
    </contour>
    <contour>
      <point x="314" y="-8" type="move" name="bottom"/>
    </contour>
  </outline>
</glyph>
<glyph name="t" format="1">
  <advance width="337"/>
  <unicode hex="0074"/>
  <outline>
    <contour>
      <point x="276" y="-10"/>
      <point x="314" y="7"/>
      <point x="347" y="29" type="curve"/>
      <point x="308" y="114" type="line"/>
      <point x="284" y="99"/>
      <point x="265" y="91"/>
      <point x="242" y="91" type="curve" smooth="yes"/>
      <point x="204" y="91"/>
      <point x="189" y="116"/>
      <point x="189" y="151" type="curve"/>
      <point x="189" y="456" type="line"/>
      <point x="76" y="456" type="line"/>
      <point x="76" y="151" type="line"/>
      <point x="76" y="54"/>
      <point x="128" y="-10"/>
      <point x="221" y="-10" type="curve" smooth="yes"/>
    </contour>
    <contour>
      <point x="291" y="267" type="line"/>
      <point x="291" y="357" type="line"/>
      <point x="5" y="357" type="line"/>
      <point x="5" y="267" type="line"/>
    </contour>
    <contour>
      <point x="209" y="-10" type="move" name="bottom"/>
    </contour>
    <contour>
      <point x="169" y="456" type="move" name="top"/>
    </contour>
    <contour>
      <point x="262" y="419" type="move" name="topright"/>
    </contour>
    <contour>
      <point x="169" y="179" type="move" name="center"/>
    </contour>
  </outline>
</glyph>
<glyph name="u" format="1">
  <advance width="512"/>
  <unicode hex="0075"/>
  <outline>
    <contour>
      <point x="263" y="-10"/>
      <point x="314" y="35"/>
      <point x="386" y="129" type="curve"/>
      <point x="386" y="219" type="line"/>
      <point x="331" y="139"/>
      <point x="283" y="97"/>
      <point x="240" y="97" type="curve" smooth="yes"/>
      <point x="190" y="97"/>
      <point x="177" y="128"/>
      <point x="177" y="168" type="curve" smooth="yes"/>
      <point x="177" y="357" type="line"/>
      <point x="62" y="357" type="line"/>
      <point x="62" y="168" type="line" smooth="yes"/>
      <point x="62" y="50"/>
      <point x="111" y="-10"/>
      <point x="197" y="-10" type="curve" smooth="yes"/>
    </contour>
    <contour>
      <point x="159" y="267" type="line"/>
      <point x="159" y="357" type="line"/>
      <point x="0" y="357" type="line"/>
      <point x="0" y="267" type="line"/>
    </contour>
    <contour>
      <point x="466" y="-6"/>
      <point x="493" y="3"/>
      <point x="507" y="11" type="curve"/>
      <point x="484" y="92" type="line"/>
      <point x="480" y="90"/>
      <point x="474" y="88"/>
      <point x="466" y="88" type="curve" smooth="yes"/>
      <point x="456" y="88"/>
      <point x="447" y="94"/>
      <point x="447" y="111" type="curve" smooth="yes"/>
      <point x="447" y="357" type="line"/>
      <point x="332" y="357" type="line"/>
      <point x="332" y="100" type="line" smooth="yes"/>
      <point x="332" y="31"/>
      <point x="376" y="-6"/>
      <point x="437" y="-6" type="curve" smooth="yes"/>
    </contour>
    <contour>
      <point x="433" y="267" type="line"/>
      <point x="433" y="357" type="line"/>
      <point x="276" y="357" type="line"/>
      <point x="276" y="267" type="line"/>
    </contour>
    <contour>
      <point x="507" y="11" type="move" name="ogonek"/>
    </contour>
    <contour>
      <point x="233" y="347" type="move" name="top"/>
    </contour>
    <contour>
      <point x="454" y="357" type="move" name="topright"/>
    </contour>
    <contour>
      <point x="210" y="-10" type="move" name="bottom"/>
    </contour>
  </outline>
</glyph>
<glyph name="v" format="1">
  <advance width="494"/>
  <unicode hex="0076"/>
  <outline>
    <contour>
      <point x="281" y="-10" type="line"/>
      <point x="455" y="304" type="line"/>
      <point x="359" y="304" type="line"/>
      <point x="267" y="122" type="line"/>
      <point x="170" y="305" type="line"/>
      <point x="37" y="305" type="line"/>
      <point x="217" y="-10" type="line"/>
    </contour>
    <contour>
      <point x="92" y="267" type="line"/>
      <point x="92" y="277" type="line"/>
      <point x="232" y="277" type="line"/>
      <point x="232" y="357" type="line"/>
      <point x="15" y="357" type="line"/>
      <point x="15" y="267" type="line"/>
    </contour>
    <contour>
      <point x="404" y="277" type="line"/>
      <point x="404" y="267" type="line"/>
      <point x="479" y="267" type="line"/>
      <point x="479" y="357" type="line"/>
      <point x="296" y="357" type="line"/>
      <point x="296" y="277" type="line"/>
    </contour>
    <contour>
      <point x="249" y="347" type="move" name="top"/>
    </contour>
    <contour>
      <point x="249" y="0" type="move" name="bottom"/>
    </contour>
  </outline>
</glyph>
<glyph name="w" format="1">
  <advance width="741"/>
  <unicode hex="0077"/>
  <outline>
    <contour>
      <point x="276" y="-10" type="line"/>
      <point x="460" y="304" type="line"/>
      <point x="354" y="304" type="line"/>
      <point x="257" y="117" type="line"/>
      <point x="165" y="305" type="line"/>
      <point x="37" y="305" type="line"/>
      <point x="212" y="-10" type="line"/>
    </contour>
    <contour>
      <point x="533" y="-10" type="line"/>
      <point x="707" y="304" type="line"/>
      <point x="606" y="304" type="line"/>
      <point x="514" y="117" type="line"/>
      <point x="422" y="288" type="line"/>
      <point x="295" y="288" type="line"/>
      <point x="469" y="-10" type="line"/>
    </contour>
    <contour>
      <point x="92" y="267" type="line"/>
      <point x="92" y="277" type="line"/>
      <point x="227" y="277" type="line"/>
      <point x="227" y="357" type="line"/>
      <point x="15" y="357" type="line"/>
      <point x="15" y="267" type="line"/>
    </contour>
    <contour>
      <point x="365" y="277" type="line"/>
      <point x="404" y="277" type="line"/>
      <point x="484" y="277" type="line"/>
      <point x="484" y="357" type="line"/>
      <point x="291" y="357" type="line"/>
      <point x="291" y="277" type="line"/>
    </contour>
    <contour>
      <point x="651" y="277" type="line"/>
      <point x="651" y="267" type="line"/>
      <point x="726" y="267" type="line"/>
      <point x="726" y="357" type="line"/>
      <point x="548" y="357" type="line"/>
      <point x="548" y="277" type="line"/>
    </contour>
    <contour>
      <point x="385" y="357" type="move" name="top"/>
    </contour>
    <contour>
      <point x="374" y="0" type="move" name="bottom"/>
    </contour>
  </outline>
</glyph>
<glyph name="x" format="1">
  <advance width="481"/>
  <unicode hex="0078"/>
  <outline>
    <contour>
      <point x="151" y="65" type="line"/>
      <point x="250" y="148" type="line"/>
      <point x="263" y="148" type="line"/>
      <point x="444" y="291" type="line"/>
      <point x="330" y="291" type="line"/>
      <point x="232" y="209" type="line"/>
      <point x="219" y="209" type="line"/>
      <point x="37" y="65" type="line"/>
    </contour>
    <contour>
      <point x="209" y="-1" type="line"/>
      <point x="209" y="79" type="line"/>
      <point x="100" y="79" type="line"/>
      <point x="100" y="89" type="line"/>
      <point x="25" y="89" type="line"/>
      <point x="25" y="-1" type="line"/>
    </contour>
    <contour>
      <point x="456" y="-1" type="line"/>
      <point x="456" y="89" type="line"/>
      <point x="379" y="89" type="line"/>
      <point x="379" y="79" type="line"/>
      <point x="243" y="79" type="line"/>
      <point x="243" y="-1" type="line"/>
    </contour>
    <contour>
      <point x="442" y="66" type="line"/>
      <point x="286" y="206" type="line"/>
      <point x="280" y="206" type="line"/>
      <point x="187" y="290" type="line"/>
      <point x="39" y="290" type="line"/>
      <point x="196" y="150" type="line"/>
      <point x="202" y="150" type="line"/>
      <point x="294" y="66" type="line"/>
    </contour>
    <contour>
      <point x="102" y="267" type="line"/>
      <point x="102" y="277" type="line"/>
      <point x="239" y="277" type="line"/>
      <point x="239" y="357" type="line"/>
      <point x="25" y="357" type="line"/>
      <point x="25" y="267" type="line"/>
    </contour>
    <contour>
      <point x="381" y="277" type="line"/>
      <point x="381" y="267" type="line"/>
      <point x="456" y="267" type="line"/>
      <point x="456" y="357" type="line"/>
      <point x="273" y="357" type="line"/>
      <point x="273" y="277" type="line"/>
    </contour>
    <contour>
      <point x="240" y="357" type="move" name="top"/>
    </contour>
    <contour>
      <point x="240" y="0" type="move" name="bottom"/>
    </contour>
  </outline>
</glyph>
<glyph name="z" format="1">
  <advance width="452"/>
  <unicode hex="007A"/>
  <outline>
    <contour>
      <point x="314" y="282"/>
      <point x="281" y="268"/>
      <point x="211" y="226" type="curve" smooth="yes"/>
      <point x="152" y="191"/>
      <point x="60" y="148"/>
      <point x="15" y="28" type="curve"/>
      <point x="109" y="-11" type="line"/>
      <point x="143" y="77"/>
      <point x="191" y="106"/>
      <point x="271" y="144" type="curve" smooth="yes"/>
      <point x="355" y="183"/>
      <point x="401" y="225"/>
      <point x="431" y="331" type="curve"/>
      <point x="335" y="368" type="line"/>
    </contour>
    <contour>
      <point x="346" y="-11"/>
      <point x="423" y="34"/>
      <point x="435" y="122" type="curve"/>
      <point x="337" y="150" type="line"/>
      <point x="328" y="117"/>
      <point x="301" y="85"/>
      <point x="266" y="85" type="curve" smooth="yes"/>
      <point x="224" y="85"/>
      <point x="215" y="101"/>
      <point x="132" y="154" type="curve"/>
      <point x="107" y="102" type="line"/>
      <point x="189" y="29"/>
      <point x="206" y="-11"/>
      <point x="285" y="-11" type="curve" smooth="yes"/>
    </contour>
    <contour>
      <point x="132" y="199" type="line"/>
      <point x="132" y="270" type="line"/>
      <point x="234" y="270"/>
      <point x="258" y="226"/>
      <point x="284" y="204" type="curve"/>
      <point x="320" y="259" type="line"/>
      <point x="253" y="325"/>
      <point x="233" y="367"/>
      <point x="102" y="367" type="curve" smooth="yes"/>
      <point x="33" y="367" type="line"/>
      <point x="33" y="199" type="line"/>
    </contour>
    <contour>
      <point x="233" y="367" type="move" name="top"/>
    </contour>
    <contour>
      <point x="184" y="-10" type="move" name="bottom"/>
    </contour>
  </outline>
</glyph>
<glyph name="braceleft" format="1">
  <advance width="372"/>
  <unicode hex="007B"/>
  <outline>
    <contour>
      <point x="298" y="-155"/>
      <point x="334" y="-141"/>
      <point x="372" y="-126" type="curve"/>
      <point x="340" y="-37" type="line"/>
      <point x="309" y="-50"/>
      <point x="282" y="-58"/>
      <point x="250" y="-58" type="curve" smooth="yes"/>
      <point x="217" y="-58"/>
      <point x="187" y="-48"/>
      <point x="187" y="-16" type="curve" smooth="yes"/>
      <point x="187" y="29"/>
      <point x="287" y="59"/>
      <point x="287" y="148" type="curve" smooth="yes"/>
      <point x="287" y="224"/>
      <point x="217" y="260"/>
      <point x="127" y="260" type="curve"/>
      <point x="127" y="250" type="line"/>
      <point x="217" y="250"/>
      <point x="287" y="286"/>
      <point x="287" y="362" type="curve" smooth="yes"/>
      <point x="287" y="451"/>
      <point x="187" y="481"/>
      <point x="187" y="526" type="curve" smooth="yes"/>
      <point x="187" y="558"/>
      <point x="217" y="568"/>
      <point x="250" y="568" type="curve" smooth="yes"/>
      <point x="282" y="568"/>
      <point x="309" y="559"/>
      <point x="340" y="547" type="curve"/>
      <point x="372" y="636" type="line"/>
      <point x="334" y="651"/>
      <point x="298" y="665"/>
      <point x="233" y="665" type="curve" smooth="yes"/>
      <point x="147" y="665"/>
      <point x="76" y="616"/>
      <point x="76" y="533" type="curve" smooth="yes"/>
      <point x="76" y="443"/>
      <point x="184" y="397"/>
      <point x="184" y="351" type="curve" smooth="yes"/>
      <point x="184" y="309"/>
      <point x="148" y="297"/>
      <point x="88" y="297" type="curve" smooth="yes"/>
      <point x="45" y="297" type="line"/>
      <point x="45" y="213" type="line"/>
      <point x="88" y="213" type="line" smooth="yes"/>
      <point x="148" y="215"/>
      <point x="184" y="201"/>
      <point x="184" y="159" type="curve" smooth="yes"/>
      <point x="184" y="111"/>
      <point x="76" y="68"/>
      <point x="76" y="-23" type="curve" smooth="yes"/>
      <point x="76" y="-106"/>
      <point x="147" y="-155"/>
      <point x="233" y="-155" type="curve" smooth="yes"/>
    </contour>
  </outline>
</glyph>
<glyph name="cent" format="1">
  <advance width="434"/>
  <unicode hex="00A2"/>
  <outline>
    <contour>
      <point x="321" y="55"/>
      <point x="370" y="83"/>
      <point x="408" y="118" type="curve"/>
      <point x="354" y="195" type="line"/>
      <point x="325" y="164"/>
      <point x="293" y="142"/>
      <point x="247" y="142" type="curve" smooth="yes"/>
      <point x="186" y="141"/>
      <point x="149" y="183"/>
      <point x="149" y="235" type="curve" smooth="yes"/>
      <point x="149" y="292"/>
      <point x="194" y="328"/>
      <point x="243" y="328" type="curve" smooth="yes"/>
      <point x="287" y="328"/>
      <point x="315" y="307"/>
      <point x="337" y="279" type="curve"/>
      <point x="394" y="280" type="line"/>
      <point x="394" y="409" type="line"/>
      <point x="315" y="409" type="line"/>
      <point x="315" y="341" type="line"/>
      <point x="356" y="336" type="line"/>
      <point x="324" y="381"/>
      <point x="292" y="416"/>
      <point x="219" y="416" type="curve" smooth="yes"/>
      <point x="125" y="416"/>
      <point x="33" y="344"/>
      <point x="33" y="235" type="curve" smooth="yes"/>
      <point x="33" y="111"/>
      <point x="148" y="53"/>
      <point x="244" y="54" type="curve" smooth="yes"/>
    </contour>
    <contour>
      <point x="285" y="-10" type="line"/>
      <point x="285" y="114" type="line"/>
      <point x="279" y="129" type="line"/>
      <point x="279" y="362" type="line"/>
      <point x="285" y="376" type="line"/>
      <point x="285" y="480" type="line"/>
      <point x="197" y="480" type="line"/>
      <point x="197" y="376" type="line"/>
      <point x="203" y="362" type="line"/>
      <point x="203" y="129" type="line"/>
      <point x="197" y="114" type="line"/>
      <point x="197" y="-10" type="line"/>
    </contour>
  </outline>
</glyph>
<glyph name="yen" format="1">
  <advance width="649"/>
  <unicode hex="00A5"/>
  <outline>
    <contour>
      <point x="280" y="374" type="line"/>
      <point x="280" y="470" type="line"/>
      <point x="50" y="470" type="line"/>
      <point x="50" y="374" type="line"/>
    </contour>
    <contour>
      <point x="599" y="374" type="line"/>
      <point x="599" y="470" type="line"/>
      <point x="375" y="470" type="line"/>
      <point x="375" y="374" type="line"/>
    </contour>
    <contour>
      <point x="353" y="156" type="line"/>
      <point x="562" y="408" type="line"/>
      <point x="447" y="408" type="line"/>
      <point x="303" y="218" type="line"/>
      <point x="365" y="219" type="line"/>
      <point x="209" y="407" type="line"/>
      <point x="73" y="407" type="line"/>
      <point x="296" y="156" type="line"/>
    </contour>
    <contour>
      <point x="258" y="241" type="line"/>
      <point x="258" y="299" type="line"/>
      <point x="70" y="299" type="line"/>
      <point x="70" y="241" type="line"/>
    </contour>
    <contour>
      <point x="579" y="241" type="line"/>
      <point x="579" y="299" type="line"/>
      <point x="379" y="299" type="line"/>
      <point x="379" y="241" type="line"/>
    </contour>
    <contour>
      <point x="579" y="162" type="line"/>
      <point x="579" y="221" type="line"/>
      <point x="70" y="221" type="line"/>
      <point x="70" y="162" type="line"/>
    </contour>
    <contour>
      <point x="384" y="30" type="line"/>
      <point x="384" y="232" type="line"/>
      <point x="267" y="232" type="line"/>
      <point x="267" y="30" type="line"/>
    </contour>
    <contour>
      <point x="475" y="0" type="line"/>
      <point x="475" y="96" type="line"/>
      <point x="176" y="96" type="line"/>
      <point x="176" y="0" type="line"/>
    </contour>
  </outline>
</glyph>
<glyph name="guillemotleft" format="1">
  <advance width="665"/>
  <unicode hex="00AB"/>
  <outline>
    <contour>
      <point x="645" y="14" type="line"/>
      <point x="611" y="124"/>
      <point x="525" y="188"/>
      <point x="339" y="188" type="curve"/>
      <point x="339" y="182" type="line"/>
      <point x="524" y="182"/>
      <point x="610" y="246"/>
      <point x="644" y="357" type="curve"/>
      <point x="555" y="390" type="line"/>
      <point x="524" y="285"/>
      <point x="456" y="234"/>
      <point x="324" y="234" type="curve" smooth="yes"/>
      <point x="315" y="234" type="line"/>
      <point x="315" y="136" type="line"/>
      <point x="325" y="136" type="line" smooth="yes"/>
      <point x="458" y="136"/>
      <point x="525" y="85"/>
      <point x="557" y="-20" type="curve"/>
    </contour>
    <contour>
      <point x="371" y="14" type="line"/>
      <point x="337" y="124"/>
      <point x="251" y="188"/>
      <point x="65" y="188" type="curve"/>
      <point x="65" y="182" type="line"/>
      <point x="250" y="182"/>
      <point x="336" y="246"/>
      <point x="370" y="357" type="curve"/>
      <point x="281" y="390" type="line"/>
      <point x="250" y="285"/>
      <point x="172" y="234"/>
      <point x="50" y="234" type="curve" smooth="yes"/>
      <point x="41" y="234" type="line"/>
      <point x="41" y="136" type="line"/>
      <point x="51" y="136" type="line" smooth="yes"/>
      <point x="174" y="136"/>
      <point x="251" y="85"/>
      <point x="283" y="-20" type="curve"/>
    </contour>
  </outline>
</glyph>
<glyph name="degree" format="1">
  <advance width="334"/>
  <unicode hex="00B0"/>
  <outline>
    <contour>
      <point x="244" y="361"/>
      <point x="299" y="417"/>
      <point x="299" y="487" type="curve" smooth="yes"/>
      <point x="299" y="562"/>
      <point x="244" y="612"/>
      <point x="168" y="612" type="curve" smooth="yes"/>
      <point x="97" y="612"/>
      <point x="35" y="561"/>
      <point x="35" y="487" type="curve" smooth="yes"/>
      <point x="35" y="416"/>
      <point x="97" y="361"/>
      <point x="168" y="361" type="curve" smooth="yes"/>
    </contour>
    <contour>
      <point x="139" y="430"/>
      <point x="116" y="457"/>
      <point x="116" y="487" type="curve" smooth="yes"/>
      <point x="116" y="519"/>
      <point x="139" y="542"/>
      <point x="168" y="542" type="curve" smooth="yes"/>
      <point x="199" y="542"/>
      <point x="219" y="520"/>
      <point x="219" y="487" type="curve" smooth="yes"/>
      <point x="219" y="457"/>
      <point x="199" y="430"/>
      <point x="168" y="430" type="curve" smooth="yes"/>
    </contour>
  </outline>
</glyph>
<glyph name="AE" format="1">
  <advance width="905"/>
  <unicode hex="00C6"/>
  <outline>
    <contour>
      <point x="125" y="13" type="line"/>
      <point x="395" y="463" type="line"/>
      <point x="348" y="463" type="line"/>
      <point x="462" y="13" type="line"/>
      <point x="585" y="13" type="line"/>
      <point x="465" y="461" type="line" smooth="yes"/>
      <point x="284" y="461" type="line"/>
      <point x="0" y="13" type="line"/>
    </contour>
    <contour>
      <point x="243" y="0" type="line"/>
      <point x="243" y="96" type="line"/>
      <point x="1" y="96" type="line"/>
      <point x="1" y="0" type="line"/>
    </contour>
    <contour>
      <point x="497" y="174" type="line"/>
      <point x="480" y="259" type="line"/>
      <point x="207" y="259" type="line"/>
      <point x="189" y="174" type="line"/>
    </contour>
    <contour>
      <point x="855" y="0" type="line"/>
      <point x="855" y="193" type="line"/>
      <point x="747" y="193" type="line"/>
      <point x="747" y="96" type="line"/>
      <point x="351" y="96" type="line"/>
      <point x="351" y="0" type="line"/>
    </contour>
    <contour>
      <point x="686" y="151" type="line"/>
      <point x="686" y="357" type="line"/>
      <point x="596" y="357" type="line"/>
      <point x="596" y="299" type="line"/>
      <point x="439" y="299" type="line"/>
      <point x="439" y="209" type="line"/>
      <point x="596" y="209" type="line"/>
      <point x="596" y="151" type="line"/>
    </contour>
    <contour>
      <point x="855" y="331" type="line"/>
      <point x="855" y="520" type="line"/>
      <point x="210" y="520" type="line"/>
      <point x="210" y="424" type="line"/>
      <point x="747" y="424" type="line"/>
      <point x="747" y="331" type="line"/>
    </contour>
    <contour>
      <point x="855" y="0" type="move" name="ogonek"/>
    </contour>
    <contour>
      <point x="465" y="0" type="move" name="bottom"/>
    </contour>
    <contour>
      <point x="466" y="520" type="move" name="top"/>
    </contour>
  </outline>
</glyph>
<glyph name="ae" format="1">
  <advance width="704"/>
  <unicode hex="00E6"/>
  <outline>
    <contour>
      <point x="580" y="-11"/>
      <point x="647" y="17"/>
      <point x="692" y="56" type="curve"/>
      <point x="646" y="135" type="line"/>
      <point x="612" y="109"/>
      <point x="567" y="90"/>
      <point x="513" y="90" type="curve" smooth="yes"/>
      <point x="456" y="90"/>
      <point x="408" y="117"/>
      <point x="408" y="177" type="curve" smooth="yes"/>
      <point x="408" y="234"/>
      <point x="464" y="278"/>
      <point x="520" y="278" type="curve" smooth="yes"/>
      <point x="547" y="278"/>
      <point x="565" y="266"/>
      <point x="565" y="250" type="curve" smooth="yes"/>
      <point x="565" y="229"/>
      <point x="542" y="217"/>
      <point x="501" y="216" type="curve" smooth="yes"/>
      <point x="474" y="216"/>
      <point x="439" y="218"/>
      <point x="383" y="245" type="curve"/>
      <point x="383" y="180" type="line"/>
      <point x="427" y="157"/>
      <point x="469" y="140"/>
      <point x="531" y="140" type="curve" smooth="yes"/>
      <point x="607" y="140"/>
      <point x="680" y="176"/>
      <point x="680" y="250" type="curve" smooth="yes"/>
      <point x="680" y="321"/>
      <point x="610" y="367"/>
      <point x="521" y="367" type="curve"/>
      <point x="434" y="367"/>
      <point x="335" y="311"/>
      <point x="334" y="220" type="curve"/>
      <point x="385" y="220" type="line"/>
      <point x="385" y="317"/>
      <point x="325" y="366"/>
      <point x="227" y="366" type="curve" smooth="yes"/>
      <point x="161" y="366"/>
      <point x="105" y="349"/>
      <point x="45" y="322" type="curve"/>
      <point x="70" y="235" type="line"/>
      <point x="124" y="257"/>
      <point x="163" y="270"/>
      <point x="215" y="270" type="curve" smooth="yes"/>
      <point x="260" y="270"/>
      <point x="299" y="255"/>
      <point x="299" y="193" type="curve" smooth="yes"/>
      <point x="299" y="177" type="line"/>
      <point x="299" y="60"/>
      <point x="397" y="-11"/>
      <point x="503" y="-11" type="curve" smooth="yes"/>
    </contour>
    <contour>
      <point x="222" y="-11"/>
      <point x="278" y="22"/>
      <point x="351" y="99" type="curve"/>
      <point x="332" y="156" type="line"/>
      <point x="275" y="101"/>
      <point x="221" y="83"/>
      <point x="196" y="83" type="curve" smooth="yes"/>
      <point x="173" y="83"/>
      <point x="153" y="91"/>
      <point x="153" y="110" type="curve" smooth="yes"/>
      <point x="153" y="133"/>
      <point x="186" y="143"/>
      <point x="217" y="144" type="curve" smooth="yes"/>
      <point x="244" y="144"/>
      <point x="279" y="142"/>
      <point x="332" y="115" type="curve"/>
      <point x="332" y="185" type="line"/>
      <point x="288" y="208"/>
      <point x="247" y="225"/>
      <point x="185" y="225" type="curve" smooth="yes"/>
      <point x="113" y="225"/>
      <point x="26" y="186"/>
      <point x="25" y="105" type="curve" smooth="yes"/>
      <point x="24" y="25"/>
      <point x="90" y="-11"/>
      <point x="160" y="-11" type="curve" smooth="yes"/>
    </contour>
    <contour>
      <point x="693" y="56" type="move" name="ogonek"/>
    </contour>
    <contour>
      <point x="344" y="-10" type="move" name="bottom"/>
    </contour>
    <contour>
      <point x="339" y="367" type="move" name="top"/>
    </contour>
  </outline>
</glyph>
<glyph name="eth" format="1">
  <advance width="462"/>
  <unicode hex="00F0"/>
  <outline>
    <contour>
      <point x="334" y="-18"/>
      <point x="442" y="60"/>
      <point x="442" y="204" type="curve" smooth="yes"/>
      <point x="442" y="373"/>
      <point x="314" y="516"/>
      <point x="117" y="595" type="curve"/>
      <point x="76" y="498" type="line"/>
      <point x="237" y="430"/>
      <point x="323" y="357"/>
      <point x="323" y="203" type="curve" smooth="yes"/>
      <point x="323" y="107"/>
      <point x="265" y="70"/>
      <point x="215" y="70" type="curve" smooth="yes"/>
      <point x="175" y="70"/>
      <point x="143" y="100"/>
      <point x="143" y="145" type="curve" smooth="yes"/>
      <point x="143" y="188"/>
      <point x="183" y="221"/>
      <point x="232" y="221" type="curve" smooth="yes"/>
      <point x="274" y="221"/>
      <point x="336" y="199"/>
      <point x="368" y="159" type="curve"/>
      <point x="372" y="239" type="line"/>
      <point x="323" y="290"/>
      <point x="269" y="310"/>
      <point x="202" y="310" type="curve" smooth="yes"/>
      <point x="96" y="310"/>
      <point x="15" y="236"/>
      <point x="15" y="145" type="curve" smooth="yes"/>
      <point x="15" y="49"/>
      <point x="97" y="-20"/>
      <point x="213" y="-19" type="curve" smooth="yes"/>
    </contour>
    <contour>
      <point x="332" y="567" type="line"/>
      <point x="263" y="619" type="line"/>
      <point x="102" y="399" type="line"/>
      <point x="172" y="348" type="line"/>
    </contour>
  </outline>
</glyph>
<glyph name="thorn" format="1">
  <advance width="505"/>
  <unicode hex="00FE"/>
  <outline>
    <contour>
      <point x="405" y="-11"/>
      <point x="485" y="71"/>
      <point x="485" y="178" type="curve" smooth="yes"/>
      <point x="485" y="287"/>
      <point x="408" y="367"/>
      <point x="320" y="367" type="curve" smooth="yes"/>
      <point x="242" y="367"/>
      <point x="157" y="292"/>
      <point x="122" y="173" type="curve"/>
      <point x="122" y="89" type="line"/>
      <point x="155" y="197"/>
      <point x="226" y="268"/>
      <point x="279" y="269" type="curve" smooth="yes"/>
      <point x="332" y="270"/>
      <point x="365" y="231"/>
      <point x="365" y="179" type="curve" smooth="yes"/>
      <point x="365" y="124"/>
      <point x="327" y="84"/>
      <point x="264" y="84" type="curve" smooth="yes"/>
      <point x="211" y="84"/>
      <point x="156" y="130"/>
      <point x="124" y="173" type="curve"/>
      <point x="124" y="97" type="line"/>
      <point x="155" y="55"/>
      <point x="203" y="-11"/>
      <point x="294" y="-11" type="curve" smooth="yes"/>
    </contour>
    <contour>
      <point x="266" y="-165" type="line"/>
      <point x="266" y="-75" type="line"/>
      <point x="0" y="-75" type="line"/>
      <point x="0" y="-165" type="line"/>
    </contour>
    <contour>
      <point x="183" y="-165" type="line"/>
      <point x="183" y="520" type="line"/>
      <point x="0" y="520" type="line"/>
      <point x="0" y="430" type="line"/>
      <point x="71" y="430" type="line"/>
      <point x="71" y="-165" type="line"/>
    </contour>
  </outline>
</glyph>
<glyph name="uni0237" format="1">
  <advance width="259"/>
  <unicode hex="0237"/>
  <outline>
    <contour>
      <point x="136" y="-190"/>
      <point x="209" y="-128"/>
      <point x="209" y="-7" type="curve" smooth="yes"/>
      <point x="209" y="357" type="line"/>
      <point x="96" y="357" type="line"/>
      <point x="96" y="-9" type="line" smooth="yes"/>
      <point x="96" y="-61"/>
      <point x="72" y="-89"/>
      <point x="35" y="-89" type="curve" smooth="yes"/>
      <point x="11" y="-89"/>
      <point x="-4" y="-84"/>
      <point x="-32" y="-75" type="curve"/>
      <point x="-60" y="-170" type="line"/>
      <point x="-33" y="-178"/>
      <point x="-10" y="-190"/>
      <point x="40" y="-190" type="curve" smooth="yes"/>
    </contour>
    <contour>
      <point x="179" y="267" type="line"/>
      <point x="179" y="357" type="line"/>
      <point x="25" y="357" type="line"/>
      <point x="25" y="267" type="line"/>
    </contour>
    <contour>
      <point x="120" y="436" type="move" name="top"/>
    </contour>
    <contour>
      <point x="134" y="0" type="move" name="bottom"/>
    </contour>
  </outline>
</glyph>
<glyph name="gravecomb" format="1">
  <advance width="355"/>
  <unicode hex="0300"/>
  <outline>
    <contour>
      <point x="268" y="565" type="line"/>
      <point x="58" y="667" type="line"/>
      <point x="116" y="750" type="line"/>
      <point x="298" y="608" type="line"/>
    </contour>
    <contour>
      <point x="197" y="520" type="move" name="_top"/>
    </contour>
  </outline>
</glyph>
<glyph name="uni0302" format="1">
  <advance width="322"/>
  <unicode hex="0302"/>
  <outline>
    <contour>
      <point x="160" y="613" type="line"/>
      <point x="264" y="539" type="line"/>
      <point x="299" y="571" type="line"/>
      <point x="189" y="702" type="line"/>
      <point x="133" y="702" type="line"/>
      <point x="23" y="571" type="line"/>
      <point x="58" y="539" type="line"/>
    </contour>
    <contour>
      <point x="161" y="521" type="move" name="_top"/>
    </contour>
  </outline>
</glyph>
<glyph name="uni0304" format="1">
  <advance width="408"/>
  <unicode hex="0304"/>
  <outline>
    <contour>
      <point x="43" y="702" type="line"/>
      <point x="43" y="618" type="line"/>
      <point x="365" y="616" type="line"/>
      <point x="365" y="700" type="line"/>
    </contour>
    <contour>
      <point x="209" y="520" type="move" name="_top"/>
    </contour>
  </outline>
</glyph>
<glyph name="uni0306" format="1">
  <advance width="359"/>
  <unicode hex="0306"/>
  <outline>
    <contour>
      <point x="260" y="571"/>
      <point x="317" y="635"/>
      <point x="320" y="706" type="curve"/>
      <point x="252" y="720" type="line"/>
      <point x="244" y="685"/>
      <point x="212" y="666"/>
      <point x="179" y="666" type="curve"/>
      <point x="146" y="666"/>
      <point x="114" y="685"/>
      <point x="106" y="720" type="curve"/>
      <point x="38" y="706" type="line"/>
      <point x="41" y="635"/>
      <point x="100" y="571"/>
      <point x="179" y="571" type="curve"/>
    </contour>
    <contour>
      <point x="179" y="520" type="move" name="_top"/>
    </contour>
  </outline>
</glyph>
<glyph name="uni0307" format="1">
  <advance width="244"/>
  <unicode hex="0307"/>
  <outline>
    <contour>
      <point x="166" y="585"/>
      <point x="197" y="610"/>
      <point x="197" y="643" type="curve"/>
      <point x="197" y="678"/>
      <point x="166" y="703"/>
      <point x="122" y="703" type="curve"/>
      <point x="81" y="703"/>
      <point x="48" y="678"/>
      <point x="48" y="643" type="curve"/>
      <point x="48" y="610"/>
      <point x="81" y="585"/>
      <point x="122" y="585" type="curve"/>
    </contour>
    <contour>
      <point x="121" y="520" type="move" name="_top"/>
    </contour>
  </outline>
</glyph>
<glyph name="uni030A" format="1">
  <advance width="304"/>
  <unicode hex="030A"/>
  <outline>
    <contour>
      <point x="209" y="562"/>
      <point x="262" y="603"/>
      <point x="262" y="667" type="curve"/>
      <point x="262" y="726"/>
      <point x="209" y="773"/>
      <point x="152" y="773" type="curve"/>
      <point x="94" y="773"/>
      <point x="43" y="731"/>
      <point x="43" y="668" type="curve"/>
      <point x="43" y="608"/>
      <point x="94" y="562"/>
      <point x="152" y="562" type="curve"/>
    </contour>
    <contour>
      <point x="127" y="618"/>
      <point x="104" y="640"/>
      <point x="104" y="668" type="curve"/>
      <point x="104" y="696"/>
      <point x="127" y="717"/>
      <point x="152" y="717" type="curve"/>
      <point x="177" y="717"/>
      <point x="201" y="694"/>
      <point x="201" y="667" type="curve"/>
      <point x="201" y="638"/>
      <point x="177" y="618"/>
      <point x="152" y="618" type="curve"/>
    </contour>
    <contour>
      <point x="152" y="520" type="move" name="_top"/>
    </contour>
  </outline>
</glyph>
<glyph name="uni030B" format="1">
  <advance width="468"/>
  <unicode hex="030B"/>
  <outline>
    <contour>
      <point x="425" y="727" type="line"/>
      <point x="348" y="793" type="line"/>
      <point x="239" y="631" type="line"/>
      <point x="294" y="583" type="line"/>
    </contour>
    <contour>
      <point x="229" y="727" type="line"/>
      <point x="152" y="793" type="line"/>
      <point x="43" y="631" type="line"/>
      <point x="98" y="583" type="line"/>
    </contour>
    <contour>
      <point x="213" y="520" type="move" name="_top"/>
    </contour>
  </outline>
</glyph>
<glyph name="uni030C" format="1">
  <advance width="322"/>
  <unicode hex="030C"/>
  <outline>
    <contour>
      <point x="162" y="635" type="line"/>
      <point x="58" y="709" type="line"/>
      <point x="23" y="677" type="line"/>
      <point x="133" y="546" type="line"/>
      <point x="189" y="546" type="line"/>
      <point x="299" y="677" type="line"/>
      <point x="264" y="709" type="line"/>
    </contour>
    <contour>
      <point x="161" y="520" type="move" name="_top"/>
    </contour>
  </outline>
</glyph>
<glyph name="uni0337" format="1">
  <advance width="371"/>
  <unicode hex="0337"/>
  <outline>
    <contour>
      <point x="315" y="391" type="line"/>
      <point x="226" y="391" type="line"/>
      <point x="57" y="67" type="line"/>
      <point x="146" y="67" type="line"/>
    </contour>
  </outline>
</glyph>
<glyph name="uni0416" format="1">
  <advance width="880"/>
  <unicode hex="0416"/>
  <outline>
    <contour>
      <point x="553" y="0" type="line" smooth="yes"/>
      <point x="553" y="96" type="line" smooth="yes"/>
      <point x="324" y="96" type="line" smooth="yes"/>
      <point x="324" y="0" type="line" smooth="yes"/>
    </contour>
    <contour>
      <point x="501" y="53" type="line" smooth="yes"/>
      <point x="501" y="464" type="line" smooth="yes"/>
      <point x="379" y="464" type="line" smooth="yes"/>
      <point x="379" y="53" type="line" smooth="yes"/>
    </contour>
    <contour>
      <point x="553" y="424" type="line" smooth="yes"/>
      <point x="553" y="520" type="line" smooth="yes"/>
      <point x="324" y="520" type="line" smooth="yes"/>
      <point x="324" y="424" type="line" smooth="yes"/>
    </contour>
    <contour>
      <point x="268" y="223" type="line"/>
      <point x="388" y="260" type="line"/>
      <point x="191" y="442" type="line"/>
      <point x="30" y="442" type="line"/>
    </contour>
    <contour>
      <point x="162" y="72" type="line"/>
      <point x="389" y="260" type="line"/>
      <point x="279" y="291" type="line"/>
      <point x="26" y="72" type="line"/>
    </contour>
    <contour>
      <point x="253" y="424" type="line" smooth="yes"/>
      <point x="253" y="520" type="line" smooth="yes"/>
      <point x="6" y="520" type="line" smooth="yes"/>
      <point x="6" y="424" type="line" smooth="yes"/>
    </contour>
    <contour>
      <point x="253" y="0" type="line" smooth="yes"/>
      <point x="253" y="96" type="line" smooth="yes"/>
      <point x="6" y="96" type="line" smooth="yes"/>
      <point x="6" y="0" type="line" smooth="yes"/>
    </contour>
    <contour>
      <point x="689" y="78" type="line"/>
      <point x="850" y="78" type="line"/>
      <point x="612" y="297" type="line"/>
      <point x="492" y="260" type="line"/>
    </contour>
    <contour>
      <point x="855" y="448" type="line"/>
      <point x="719" y="448" type="line"/>
      <point x="492" y="260" type="line"/>
      <point x="601" y="229" type="line"/>
    </contour>
    <contour>
      <point x="874" y="0" type="line" smooth="yes"/>
      <point x="874" y="95" type="line" smooth="yes"/>
      <point x="627" y="95" type="line" smooth="yes"/>
      <point x="627" y="0" type="line" smooth="yes"/>
    </contour>
    <contour>
      <point x="874" y="424" type="line" smooth="yes"/>
      <point x="874" y="520" type="line" smooth="yes"/>
      <point x="627" y="520" type="line" smooth="yes"/>
      <point x="627" y="424" type="line" smooth="yes"/>
    </contour>
  </outline>
</glyph>
<glyph name="uni0424" format="1">
  <advance width="640"/>
  <unicode hex="0424"/>
  <outline>
    <contour>
      <point x="515" y="48"/>
      <point x="640" y="105"/>
      <point x="640" y="241" type="curve" smooth="yes"/>
      <point x="640" y="364"/>
      <point x="515" y="433"/>
      <point x="321" y="433" type="curve" smooth="yes"/>
      <point x="126" y="433"/>
      <point x="1" y="364"/>
      <point x="1" y="241" type="curve" smooth="yes"/>
      <point x="1" y="105"/>
      <point x="126" y="48"/>
      <point x="321" y="48" type="curve" smooth="yes"/>
    </contour>
    <contour>
      <point x="443" y="-85" type="line" smooth="yes"/>
      <point x="443" y="11" type="line" smooth="yes"/>
      <point x="199" y="11" type="line" smooth="yes"/>
      <point x="199" y="-85" type="line" smooth="yes"/>
    </contour>
    <contour>
      <point x="180" y="122"/>
      <point x="128" y="162"/>
      <point x="128" y="241" type="curve" smooth="yes"/>
      <point x="128" y="307"/>
      <point x="180" y="359"/>
      <point x="320" y="359" type="curve" smooth="yes"/>
      <point x="460" y="359"/>
      <point x="512" y="307"/>
      <point x="512" y="241" type="curve" smooth="yes"/>
      <point x="512" y="162"/>
      <point x="460" y="122"/>
      <point x="320" y="122" type="curve" smooth="yes"/>
    </contour>
    <contour>
      <point x="380" y="-38" type="line" smooth="yes"/>
      <point x="380" y="504" type="line" smooth="yes"/>
      <point x="262" y="504" type="line" smooth="yes"/>
      <point x="262" y="-38" type="line" smooth="yes"/>
    </contour>
    <contour>
      <point x="443" y="464" type="line" smooth="yes"/>
      <point x="443" y="560" type="line" smooth="yes"/>
      <point x="199" y="560" type="line" smooth="yes"/>
      <point x="199" y="464" type="line" smooth="yes"/>
    </contour>
  </outline>
</glyph>
<glyph name="quotesinglbase" format="1">
  <advance width="248"/>
  <unicode hex="201A"/>
  <outline>
    <contour>
      <point x="157" y="-97"/>
      <point x="204" y="-41"/>
      <point x="204" y="14" type="curve" smooth="yes"/>
      <point x="204" y="69"/>
      <point x="171" y="100"/>
      <point x="121" y="100" type="curve" smooth="yes"/>
      <point x="78" y="100"/>
      <point x="44" y="79"/>
      <point x="44" y="44" type="curve" smooth="yes"/>
      <point x="44" y="13"/>
      <point x="72" y="-10"/>
      <point x="109" y="-10" type="curve" smooth="yes"/>
      <point x="122" y="-10"/>
      <point x="135" y="-8"/>
      <point x="143" y="-5" type="curve"/>
      <point x="142" y="-43"/>
      <point x="108" y="-79"/>
      <point x="69" y="-120" type="curve"/>
      <point x="98" y="-149" type="line"/>
    </contour>
  </outline>
</glyph>
<glyph name="quotedblleft" format="1">
  <advance width="449"/>
  <unicode hex="201C"/>
  <outline>
    <contour>
      <point x="371" y="322"/>
      <point x="405" y="343"/>
      <point x="405" y="378" type="curve" smooth="yes"/>
      <point x="405" y="409"/>
      <point x="377" y="432"/>
      <point x="340" y="432" type="curve" smooth="yes"/>
      <point x="327" y="432"/>
      <point x="314" y="430"/>
      <point x="306" y="427" type="curve"/>
      <point x="307" y="465"/>
      <point x="341" y="501"/>
      <point x="379" y="542" type="curve"/>
      <point x="351" y="571" type="line"/>
      <point x="292" y="519"/>
      <point x="245" y="463"/>
      <point x="245" y="408" type="curve" smooth="yes"/>
      <point x="245" y="353"/>
      <point x="277" y="322"/>
      <point x="328" y="322" type="curve" smooth="yes"/>
    </contour>
    <contour>
      <point x="170" y="324"/>
      <point x="204" y="345"/>
      <point x="204" y="380" type="curve" smooth="yes"/>
      <point x="204" y="411"/>
      <point x="176" y="434"/>
      <point x="139" y="434" type="curve" smooth="yes"/>
      <point x="126" y="434"/>
      <point x="113" y="432"/>
      <point x="105" y="429" type="curve"/>
      <point x="106" y="467"/>
      <point x="140" y="503"/>
      <point x="178" y="544" type="curve"/>
      <point x="150" y="573" type="line"/>
      <point x="91" y="521"/>
      <point x="44" y="466"/>
      <point x="44" y="410" type="curve" smooth="yes"/>
      <point x="44" y="355"/>
      <point x="76" y="324"/>
      <point x="127" y="324" type="curve" smooth="yes"/>
    </contour>
  </outline>
</glyph>
<glyph name="quotedblright" format="1">
  <advance width="449"/>
  <unicode hex="201D"/>
  <outline>
    <contour>
      <point x="358" y="364"/>
      <point x="405" y="419"/>
      <point x="405" y="474" type="curve" smooth="yes"/>
      <point x="405" y="530"/>
      <point x="372" y="561"/>
      <point x="322" y="561" type="curve" smooth="yes"/>
      <point x="279" y="561"/>
      <point x="245" y="539"/>
      <point x="245" y="505" type="curve" smooth="yes"/>
      <point x="245" y="473"/>
      <point x="273" y="450"/>
      <point x="310" y="450" type="curve" smooth="yes"/>
      <point x="323" y="450"/>
      <point x="336" y="452"/>
      <point x="344" y="455" type="curve"/>
      <point x="343" y="417"/>
      <point x="309" y="381"/>
      <point x="270" y="341" type="curve"/>
      <point x="299" y="312" type="line"/>
    </contour>
    <contour>
      <point x="157" y="366"/>
      <point x="204" y="422"/>
      <point x="204" y="477" type="curve" smooth="yes"/>
      <point x="204" y="532"/>
      <point x="171" y="563"/>
      <point x="121" y="563" type="curve" smooth="yes"/>
      <point x="78" y="563"/>
      <point x="44" y="542"/>
      <point x="44" y="507" type="curve" smooth="yes"/>
      <point x="44" y="476"/>
      <point x="72" y="453"/>
      <point x="109" y="453" type="curve" smooth="yes"/>
      <point x="122" y="453"/>
      <point x="135" y="455"/>
      <point x="143" y="458" type="curve"/>
      <point x="142" y="420"/>
      <point x="108" y="384"/>
      <point x="69" y="343" type="curve"/>
      <point x="98" y="314" type="line"/>
    </contour>
  </outline>
</glyph>
<glyph name="quotedblbase" format="1">
  <advance width="449"/>
  <unicode hex="201E"/>
  <outline>
    <contour>
      <point x="358" y="-97"/>
      <point x="405" y="-41"/>
      <point x="405" y="14" type="curve" smooth="yes"/>
      <point x="405" y="69"/>
      <point x="372" y="100"/>
      <point x="322" y="100" type="curve" smooth="yes"/>
      <point x="279" y="100"/>
      <point x="245" y="79"/>
      <point x="245" y="44" type="curve" smooth="yes"/>
      <point x="245" y="13"/>
      <point x="273" y="-10"/>
      <point x="310" y="-10" type="curve" smooth="yes"/>
      <point x="323" y="-10"/>
      <point x="336" y="-8"/>
      <point x="344" y="-5" type="curve"/>
      <point x="343" y="-43"/>
      <point x="309" y="-79"/>
      <point x="270" y="-120" type="curve"/>
      <point x="299" y="-149" type="line"/>
    </contour>
    <contour>
      <point x="157" y="-94"/>
      <point x="204" y="-39"/>
      <point x="204" y="16" type="curve" smooth="yes"/>
      <point x="204" y="72"/>
      <point x="171" y="103"/>
      <point x="121" y="103" type="curve" smooth="yes"/>
      <point x="78" y="103"/>
      <point x="44" y="82"/>
      <point x="44" y="47" type="curve" smooth="yes"/>
      <point x="44" y="15"/>
      <point x="72" y="-8"/>
      <point x="109" y="-8" type="curve" smooth="yes"/>
      <point x="122" y="-8"/>
      <point x="135" y="-6"/>
      <point x="143" y="-3" type="curve"/>
      <point x="142" y="-40"/>
      <point x="108" y="-77"/>
      <point x="69" y="-117" type="curve"/>
      <point x="98" y="-146" type="line"/>
    </contour>
  </outline>
</glyph>
<glyph name="guilsinglright" format="1">
  <advance width="450"/>
  <unicode hex="203A"/>
  <outline>
    <contour>
      <point x="151" y="84"/>
      <point x="242" y="135"/>
      <point x="373" y="135" type="curve" smooth="yes"/>
      <point x="409" y="135" type="line"/>
      <point x="409" y="233" type="line"/>
      <point x="372" y="233" type="line" smooth="yes"/>
      <point x="239" y="233"/>
      <point x="150" y="284"/>
      <point x="118" y="389" type="curve"/>
      <point x="30" y="355" type="line"/>
      <point x="64" y="245"/>
      <point x="150" y="181"/>
      <point x="348" y="181" type="curve"/>
      <point x="348" y="187" type="line"/>
      <point x="151" y="187"/>
      <point x="66" y="123"/>
      <point x="31" y="12" type="curve"/>
      <point x="120" y="-21" type="line"/>
    </contour>
  </outline>
</glyph>
<glyph name="Euro" format="1">
  <advance width="568"/>
  <unicode hex="20AC"/>
  <outline>
    <contour>
      <point x="433" y="-10"/>
      <point x="497" y="25"/>
      <point x="545" y="70" type="curve"/>
      <point x="490" y="147" type="line"/>
      <point x="450" y="107"/>
      <point x="412" y="80"/>
      <point x="346" y="80" type="curve" smooth="yes"/>
      <point x="255" y="80"/>
      <point x="199" y="138"/>
      <point x="199" y="234" type="curve" smooth="yes"/>
      <point x="199" y="337"/>
      <point x="264" y="392"/>
      <point x="340" y="392" type="curve" smooth="yes"/>
      <point x="409" y="392"/>
      <point x="446" y="354"/>
      <point x="475" y="313" type="curve"/>
      <point x="537" y="317" type="line"/>
      <point x="537" y="470" type="line"/>
      <point x="439" y="470" type="line"/>
      <point x="439" y="373" type="line"/>
      <point x="494" y="357" type="line"/>
      <point x="461" y="427"/>
      <point x="401" y="480"/>
      <point x="308" y="480" type="curve" smooth="yes"/>
      <point x="189" y="480"/>
      <point x="78" y="386"/>
      <point x="78" y="234" type="curve" smooth="yes"/>
      <point x="78" y="90"/>
      <point x="192" y="-10"/>
      <point x="346" y="-10" type="curve" smooth="yes"/>
    </contour>
    <contour>
      <point x="27" y="216" type="line"/>
      <point x="27" y="151" type="line"/>
      <point x="440" y="151" type="line"/>
      <point x="440" y="216" type="line"/>
    </contour>
    <contour>
      <point x="27" y="302" type="line"/>
      <point x="27" y="237" type="line"/>
      <point x="440" y="237" type="line"/>
      <point x="440" y="302" type="line"/>
    </contour>
  </outline>
</glyph>
<glyph name="uni2120" format="1">
  <advance width="667"/>
  <unicode hex="2120"/>
  <outline>
    <contour>
      <point x="224" y="295"/>
      <point x="256" y="318"/>
      <point x="256" y="357" type="curve" smooth="yes"/>
      <point x="256" y="398"/>
      <point x="219" y="420"/>
      <point x="167" y="434" type="curve" smooth="yes"/>
      <point x="124" y="444"/>
      <point x="107" y="450"/>
      <point x="107" y="462" type="curve" smooth="yes"/>
      <point x="107" y="476"/>
      <point x="118" y="483"/>
      <point x="139" y="483" type="curve" smooth="yes"/>
      <point x="167" y="483"/>
      <point x="195" y="469"/>
      <point x="209" y="445" type="curve"/>
      <point x="245" y="446" type="line"/>
      <point x="245" y="520" type="line"/>
      <point x="201" y="520" type="line"/>
      <point x="201" y="470" type="line"/>
      <point x="225" y="470" type="line"/>
      <point x="200" y="503"/>
      <point x="169" y="524"/>
      <point x="126" y="524" type="curve" smooth="yes"/>
      <point x="80" y="524"/>
      <point x="50" y="498"/>
      <point x="50" y="460" type="curve" smooth="yes"/>
      <point x="50" y="428"/>
      <point x="70" y="399"/>
      <point x="126" y="385" type="curve" smooth="yes"/>
      <point x="180" y="372"/>
      <point x="200" y="366"/>
      <point x="200" y="352" type="curve" smooth="yes"/>
      <point x="200" y="338"/>
      <point x="186" y="334"/>
      <point x="171" y="334" type="curve" smooth="yes"/>
      <point x="141" y="334"/>
      <point x="111" y="347"/>
      <point x="88" y="375" type="curve"/>
      <point x="50" y="376" type="line"/>
      <point x="50" y="299" type="line"/>
      <point x="94" y="299" type="line"/>
      <point x="94" y="348" type="line"/>
      <point x="67" y="349" type="line"/>
      <point x="98" y="319"/>
      <point x="131" y="295"/>
      <point x="178" y="295" type="curve" smooth="yes"/>
    </contour>
    <contour>
      <point x="443" y="297" type="line"/>
      <point x="458" y="324" type="line"/>
      <point x="362" y="520" type="line"/>
      <point x="314" y="520" type="line"/>
      <point x="422" y="297" type="line"/>
    </contour>
    <contour>
      <point x="381" y="299" type="line"/>
      <point x="381" y="340" type="line"/>
      <point x="271" y="340" type="line"/>
      <point x="271" y="299" type="line"/>
    </contour>
    <contour>
      <point x="352" y="321" type="line"/>
      <point x="352" y="520" type="line"/>
      <point x="305" y="520" type="line"/>
      <point x="305" y="321" type="line"/>
    </contour>
    <contour>
      <point x="350" y="479" type="line"/>
      <point x="350" y="520" type="line"/>
      <point x="271" y="520" type="line"/>
      <point x="271" y="479" type="line"/>
    </contour>
    <contour>
      <point x="607" y="299" type="line"/>
      <point x="607" y="340" type="line"/>
      <point x="493" y="340" type="line"/>
      <point x="493" y="299" type="line"/>
    </contour>
    <contour>
      <point x="454" y="297" type="line"/>
      <point x="561" y="520" type="line"/>
      <point x="517" y="520" type="line"/>
      <point x="423" y="324" type="line"/>
      <point x="434" y="297" type="line"/>
    </contour>
    <contour>
      <point x="573" y="321" type="line"/>
      <point x="573" y="520" type="line"/>
      <point x="522" y="520" type="line"/>
      <point x="522" y="321" type="line"/>
    </contour>
    <contour>
      <point x="607" y="479" type="line"/>
      <point x="607" y="520" type="line"/>
      <point x="524" y="520" type="line"/>
      <point x="524" y="479" type="line"/>
    </contour>
  </outline>
</glyph>
<glyph name="trademark" format="1">
  <advance width="682"/>
  <unicode hex="2122"/>
  <outline>
    <contour>
      <point x="458" y="297" type="line"/>
      <point x="473" y="324" type="line"/>
      <point x="377" y="520" type="line"/>
      <point x="328" y="520" type="line"/>
      <point x="437" y="297" type="line"/>
    </contour>
    <contour>
      <point x="196" y="300" type="line"/>
      <point x="196" y="341" type="line"/>
      <point x="80" y="341" type="line"/>
      <point x="80" y="300" type="line"/>
    </contour>
    <contour>
      <point x="163" y="325" type="line"/>
      <point x="163" y="500" type="line"/>
      <point x="112" y="500" type="line"/>
      <point x="112" y="325" type="line"/>
    </contour>
    <contour>
      <point x="60" y="435" type="line"/>
      <point x="60" y="484" type="line"/>
      <point x="215" y="484" type="line"/>
      <point x="215" y="435" type="line"/>
      <point x="261" y="435" type="line"/>
      <point x="261" y="520" type="line"/>
      <point x="15" y="520" type="line"/>
      <point x="15" y="435" type="line"/>
    </contour>
    <contour>
      <point x="396" y="299" type="line"/>
      <point x="396" y="340" type="line"/>
      <point x="286" y="340" type="line"/>
      <point x="286" y="299" type="line"/>
    </contour>
    <contour>
      <point x="367" y="321" type="line"/>
      <point x="367" y="520" type="line"/>
      <point x="320" y="520" type="line"/>
      <point x="320" y="321" type="line"/>
    </contour>
    <contour>
      <point x="365" y="479" type="line"/>
      <point x="365" y="520" type="line"/>
      <point x="286" y="520" type="line"/>
      <point x="286" y="479" type="line"/>
    </contour>
    <contour>
      <point x="622" y="299" type="line"/>
      <point x="622" y="340" type="line"/>
      <point x="508" y="340" type="line"/>
      <point x="508" y="299" type="line"/>
    </contour>
    <contour>
      <point x="468" y="297" type="line"/>
      <point x="576" y="520" type="line"/>
      <point x="531" y="520" type="line"/>
      <point x="437" y="324" type="line"/>
      <point x="448" y="297" type="line"/>
    </contour>
    <contour>
      <point x="588" y="321" type="line"/>
      <point x="588" y="520" type="line"/>
      <point x="537" y="520" type="line"/>
      <point x="537" y="321" type="line"/>
    </contour>
    <contour>
      <point x="622" y="479" type="line"/>
      <point x="622" y="520" type="line"/>
      <point x="539" y="520" type="line"/>
      <point x="539" y="479" type="line"/>
    </contour>
  </outline>
</glyph>
<glyph name="Q.alt" format="1">
  <advance width="625"/>
  <outline>
    <contour>
      <point x="882" y="-200"/>
      <point x="951" y="-170"/>
      <point x="998" y="-136" type="curve"/>
      <point x="953" y="-51" type="line"/>
      <point x="908" y="-82"/>
      <point x="863" y="-100"/>
      <point x="803" y="-100" type="curve" smooth="yes"/>
      <point x="713" y="-100"/>
      <point x="646" y="-44"/>
      <point x="549" y="59" type="curve" smooth="yes"/>
      <point x="401" y="217"/>
      <point x="343" y="284"/>
      <point x="141" y="284" type="curve" smooth="yes"/>
      <point x="98" y="284" type="line"/>
      <point x="98" y="197" type="line"/>
      <point x="144" y="197" type="line" smooth="yes"/>
      <point x="288" y="197"/>
      <point x="338" y="147"/>
      <point x="453" y="11" type="curve" smooth="yes"/>
      <point x="590" y="-151"/>
      <point x="677" y="-200"/>
      <point x="803" y="-200" type="curve" smooth="yes"/>
    </contour>
    <contour>
      <point x="472" y="-10"/>
      <point x="592" y="110"/>
      <point x="592" y="260" type="curve"/>
      <point x="592" y="410"/>
      <point x="472" y="530"/>
      <point x="309" y="530" type="curve"/>
      <point x="145" y="530"/>
      <point x="25" y="410"/>
      <point x="25" y="260" type="curve"/>
      <point x="25" y="110"/>
      <point x="145" y="-10"/>
      <point x="309" y="-10" type="curve"/>
    </contour>
    <contour>
      <point x="207" y="81"/>
      <point x="150" y="162"/>
      <point x="150" y="260" type="curve"/>
      <point x="150" y="357"/>
      <point x="207" y="439"/>
      <point x="308" y="439" type="curve"/>
      <point x="409" y="439"/>
      <point x="466" y="358"/>
      <point x="466" y="260" type="curve"/>
      <point x="466" y="163"/>
      <point x="409" y="81"/>
      <point x="308" y="81" type="curve"/>
    </contour>
    <contour>
      <point x="307" y="530" type="move" name="top"/>
    </contour>
    <contour>
      <point x="307" y="-10" type="move" name="bottom"/>
    </contour>
  </outline>
</glyph>
<glyph name="R.alt" format="1">
  <advance width="587"/>
  <outline>
    <contour>
      <point x="933" y="-200"/>
      <point x="1018" y="-161"/>
      <point x="1079" y="-114" type="curve"/>
      <point x="1029" y="-29" type="line"/>
      <point x="975" y="-70"/>
      <point x="914" y="-96"/>
      <point x="835" y="-96" type="curve" smooth="yes"/>
      <point x="739" y="-96"/>
      <point x="639" y="-52"/>
      <point x="536" y="72" type="curve" smooth="yes"/>
      <point x="448" y="180"/>
      <point x="405" y="229"/>
      <point x="337" y="229" type="curve" smooth="yes"/>
      <point x="202" y="229" type="line"/>
      <point x="202" y="210" type="line"/>
      <point x="249" y="210" type="line" smooth="yes"/>
      <point x="305" y="210"/>
      <point x="314" y="156"/>
      <point x="427" y="22" type="curve" smooth="yes"/>
      <point x="532" y="-98"/>
      <point x="657" y="-200"/>
      <point x="817" y="-200" type="curve" smooth="yes"/>
    </contour>
    <contour>
      <point x="318" y="0" type="line"/>
      <point x="318" y="96" type="line"/>
      <point x="25" y="97" type="line"/>
      <point x="25" y="0" type="line"/>
    </contour>
    <contour>
      <point x="233" y="53" type="line"/>
      <point x="233" y="464" type="line"/>
      <point x="110" y="464" type="line"/>
      <point x="110" y="53" type="line"/>
    </contour>
    <contour>
      <point x="357" y="210" type="line" smooth="yes"/>
      <point x="489" y="210"/>
      <point x="554" y="285"/>
      <point x="554" y="366" type="curve" smooth="yes"/>
      <point x="554" y="457"/>
      <point x="488" y="520"/>
      <point x="357" y="520" type="curve" smooth="yes"/>
      <point x="25" y="520" type="line"/>
      <point x="25" y="424" type="line"/>
      <point x="350" y="424" type="line" smooth="yes"/>
      <point x="387" y="424"/>
      <point x="432" y="415"/>
      <point x="432" y="366" type="curve" smooth="yes"/>
      <point x="432" y="307"/>
      <point x="384" y="301"/>
      <point x="350" y="301" type="curve" smooth="yes"/>
      <point x="190" y="301" type="line"/>
      <point x="190" y="210" type="line"/>
    </contour>
    <contour>
      <point x="317" y="520" type="move" name="top"/>
    </contour>
    <contour>
      <point x="357" y="0" type="move" name="bottom"/>
    </contour>
  </outline>
</glyph>
<glyph name="W.bold" format="1">
  <advance width="887"/>
  <outline>
    <contour>
      <point x="273" y="424" type="line"/>
      <point x="273" y="520" type="line"/>
      <point x="0" y="520" type="line"/>
      <point x="0" y="424" type="line"/>
    </contour>
    <contour>
      <point x="277" y="-10" type="line"/>
      <point x="314" y="89" type="line"/>
      <point x="188" y="461" type="line"/>
      <point x="60" y="461" type="line"/>
      <point x="233" y="-10" type="line"/>
    </contour>
    <contour>
      <point x="297" y="-10" type="line"/>
      <point x="475" y="411" type="line"/>
      <point x="456" y="510" type="line"/>
      <point x="416" y="510" type="line"/>
      <point x="227" y="42" type="line"/>
      <point x="250" y="-10" type="line"/>
    </contour>
    <contour>
      <point x="634" y="-10" type="line"/>
      <point x="669" y="89" type="line"/>
      <point x="480" y="510" type="line"/>
      <point x="436" y="510" type="line"/>
      <point x="394" y="403" type="line"/>
      <point x="590" y="-10" type="line"/>
    </contour>
    <contour>
      <point x="654" y="-10" type="line"/>
      <point x="824" y="461" type="line"/>
      <point x="714" y="461" type="line"/>
      <point x="584" y="42" type="line"/>
      <point x="607" y="-10" type="line"/>
    </contour>
    <contour>
      <point x="887" y="424" type="line"/>
      <point x="887" y="520" type="line"/>
      <point x="616" y="520" type="line"/>
      <point x="616" y="424" type="line"/>
    </contour>
    <contour>
      <point x="426" y="520" type="move" name="top"/>
    </contour>
    <contour>
      <point x="415" y="0" type="move" name="bottom"/>
    </contour>
  </outline>
</glyph>
<glyph name="a.alt" format="1">
  <advance width="488"/>
  <outline>
    <contour>
      <point x="453" y="-6"/>
      <point x="496" y="27"/>
      <point x="496" y="90" type="curve" smooth="yes"/>
      <point x="496" y="143" type="line"/>
      <point x="439" y="143" type="line"/>
      <point x="439" y="89" type="line" smooth="yes"/>
      <point x="439" y="78"/>
      <point x="436" y="68"/>
      <point x="424" y="68" type="curve" smooth="yes"/>
      <point x="413" y="68"/>
      <point x="410" y="79"/>
      <point x="410" y="88" type="curve" smooth="yes"/>
      <point x="410" y="218" type="line" smooth="yes"/>
      <point x="410" y="305"/>
      <point x="353" y="366"/>
      <point x="235" y="366" type="curve" smooth="yes"/>
      <point x="169" y="366"/>
      <point x="121" y="351"/>
      <point x="53" y="322" type="curve"/>
      <point x="78" y="235" type="line"/>
      <point x="132" y="257"/>
      <point x="176" y="270"/>
      <point x="218" y="270" type="curve" smooth="yes"/>
      <point x="263" y="270"/>
      <point x="301" y="255"/>
      <point x="301" y="223" type="curve" smooth="yes"/>
      <point x="301" y="90" type="line" smooth="yes"/>
      <point x="301" y="32"/>
      <point x="338" y="-6"/>
      <point x="400" y="-6" type="curve" smooth="yes"/>
    </contour>
    <contour>
      <point x="219" y="-11"/>
      <point x="273" y="16"/>
      <point x="316" y="60" type="curve"/>
      <point x="318" y="134" type="line"/>
      <point x="273" y="99"/>
      <point x="230" y="83"/>
      <point x="197" y="83" type="curve" smooth="yes"/>
      <point x="173" y="83"/>
      <point x="161" y="93"/>
      <point x="161" y="106" type="curve" smooth="yes"/>
      <point x="161" y="128"/>
      <point x="185" y="137"/>
      <point x="210" y="137" type="curve" smooth="yes"/>
      <point x="243" y="138"/>
      <point x="275" y="135"/>
      <point x="318" y="125" type="curve"/>
      <point x="318" y="195" type="line"/>
      <point x="276" y="208"/>
      <point x="229" y="219"/>
      <point x="180" y="219" type="curve" smooth="yes"/>
      <point x="108" y="219"/>
      <point x="33" y="179"/>
      <point x="33" y="101" type="curve" smooth="yes"/>
      <point x="33" y="25"/>
      <point x="96" y="-11"/>
      <point x="162" y="-11" type="curve" smooth="yes"/>
    </contour>
    <contour>
      <point x="453" y="9" type="move" name="ogonek"/>
    </contour>
    <contour>
      <point x="162" y="-11" type="move" name="bottom"/>
    </contour>
    <contour>
      <point x="221" y="365" type="move" name="top"/>
    </contour>
  </outline>
</glyph>
<glyph name="d.alt" format="1">
  <advance width="509"/>
  <outline>
    <contour>
      <point x="292" y="-11"/>
      <point x="345" y="58"/>
      <point x="383" y="98" type="curve"/>
      <point x="383" y="181" type="line"/>
      <point x="341" y="139"/>
      <point x="286" y="87"/>
      <point x="232" y="86" type="curve" smooth="yes"/>
      <point x="173" y="85"/>
      <point x="140" y="125"/>
      <point x="140" y="177" type="curve" smooth="yes"/>
      <point x="140" y="232"/>
      <point x="178" y="272"/>
      <point x="241" y="272" type="curve" smooth="yes"/>
      <point x="294" y="272"/>
      <point x="349" y="225"/>
      <point x="381" y="182" type="curve"/>
      <point x="381" y="259" type="line"/>
      <point x="350" y="301"/>
      <point x="302" y="367"/>
      <point x="211" y="367" type="curve" smooth="yes"/>
      <point x="100" y="367"/>
      <point x="20" y="285"/>
      <point x="20" y="177" type="curve" smooth="yes"/>
      <point x="20" y="69"/>
      <point x="104" y="-11"/>
      <point x="198" y="-11" type="curve" smooth="yes"/>
    </contour>
    <contour>
      <point x="481" y="-11"/>
      <point x="517" y="22"/>
      <point x="517" y="85" type="curve" smooth="yes"/>
      <point x="517" y="138" type="line"/>
      <point x="460" y="138" type="line"/>
      <point x="460" y="84" type="line" smooth="yes"/>
      <point x="460" y="73"/>
      <point x="457" y="63"/>
      <point x="446" y="63" type="curve" smooth="yes"/>
      <point x="434" y="63"/>
      <point x="433" y="74"/>
      <point x="433" y="83" type="curve" smooth="yes"/>
      <point x="433" y="520" type="line"/>
      <point x="317" y="520" type="line"/>
      <point x="317" y="85" type="line" smooth="yes"/>
      <point x="317" y="27"/>
      <point x="360" y="-11"/>
      <point x="421" y="-11" type="curve" smooth="yes"/>
    </contour>
    <contour>
      <point x="421" y="430" type="line"/>
      <point x="421" y="520" type="line"/>
      <point x="246" y="520" type="line"/>
      <point x="246" y="430" type="line"/>
    </contour>
    <contour>
      <point x="200" y="-8" type="move" name="bottom"/>
    </contour>
    <contour>
      <point x="210" y="365" type="move" name="top"/>
    </contour>
    <contour>
      <point x="518" y="357" type="move" name="topright"/>
    </contour>
    <contour>
      <point x="204" y="179" type="move" name="center"/>
    </contour>
  </outline>
</glyph>
<glyph name="four.dnom" format="1">
  <advance width="298"/>
  <outline>
    <contour>
      <point x="249" y="278" type="line"/>
      <point x="169" y="278" type="line"/>
      <point x="3" y="107" type="line"/>
      <point x="55" y="83" type="line"/>
    </contour>
    <contour>
      <point x="299" y="42" type="line"/>
      <point x="299" y="107" type="line"/>
      <point x="3" y="107" type="line"/>
      <point x="3" y="42" type="line"/>
    </contour>
    <contour>
      <point x="169" y="-10" type="line"/>
      <point x="249" y="-10" type="line"/>
      <point x="249" y="278" type="line"/>
      <point x="169" y="278" type="line"/>
    </contour>
  </outline>
</glyph>
<glyph name="t.alt" format="1">
  <advance width="339"/>
  <outline>
    <contour>
      <point x="305" y="357" type="line"/>
      <point x="23" y="357" type="line"/>
      <point x="23" y="267" type="line"/>
      <point x="305" y="267" type="line"/>
    </contour>
    <contour>
      <point x="304" y="121" type="line"/>
      <point x="277" y="101"/>
      <point x="252" y="92"/>
      <point x="225" y="92" type="curve" smooth="yes"/>
      <point x="195" y="92"/>
      <point x="172" y="110"/>
      <point x="172" y="163" type="curve" smooth="yes"/>
      <point x="172" y="217"/>
      <point x="187" y="264"/>
      <point x="213" y="340" type="curve"/>
      <point x="207" y="347" type="line"/>
      <point x="207" y="455" type="line"/>
      <point x="94" y="455" type="line"/>
      <point x="94" y="348" type="line"/>
      <point x="102" y="342" type="line"/>
      <point x="80" y="268"/>
      <point x="57" y="218"/>
      <point x="57" y="145" type="curve" smooth="yes"/>
      <point x="57" y="41"/>
      <point x="121" y="-10"/>
      <point x="213" y="-10" type="curve" smooth="yes"/>
      <point x="277" y="-10"/>
      <point x="315" y="11"/>
      <point x="342" y="31" type="curve"/>
    </contour>
    <contour>
      <point x="212" y="-10" type="move" name="bottom"/>
    </contour>
    <contour>
      <point x="172" y="456" type="move" name="top"/>
    </contour>
    <contour>
      <point x="265" y="419" type="move" name="topright"/>
    </contour>
    <contour>
      <point x="172" y="179" type="move" name="center"/>
    </contour>
  </outline>
</glyph>
<glyph name="w.bold" format="1">
  <advance width="677"/>
  <outline>
    <contour>
      <point x="100" y="267" type="line"/>
      <point x="100" y="277" type="line"/>
      <point x="238" y="277" type="line"/>
      <point x="238" y="357" type="line"/>
      <point x="15" y="357" type="line"/>
      <point x="15" y="267" type="line"/>
    </contour>
    <contour>
      <point x="229" y="-10" type="line"/>
      <point x="258" y="50" type="line"/>
      <point x="165" y="298" type="line"/>
      <point x="49" y="298" type="line"/>
      <point x="175" y="-10" type="line"/>
    </contour>
    <contour>
      <point x="239" y="-10" type="line"/>
      <point x="366" y="250" type="line"/>
      <point x="352" y="347" type="line"/>
      <point x="323" y="347" type="line"/>
      <point x="187" y="50" type="line"/>
      <point x="220" y="-10" type="line"/>
    </contour>
    <contour>
      <point x="492" y="-10" type="line"/>
      <point x="521" y="50" type="line"/>
      <point x="387" y="347" type="line"/>
      <point x="340" y="347" type="line"/>
      <point x="311" y="250" type="line"/>
      <point x="438" y="-10" type="line"/>
    </contour>
    <contour>
      <point x="502" y="-10" type="line"/>
      <point x="633" y="304" type="line"/>
      <point x="542" y="304" type="line"/>
      <point x="446" y="50" type="line"/>
      <point x="482" y="-10" type="line"/>
    </contour>
    <contour>
      <point x="577" y="277" type="line"/>
      <point x="577" y="267" type="line"/>
      <point x="662" y="267" type="line"/>
      <point x="662" y="357" type="line"/>
      <point x="474" y="357" type="line"/>
      <point x="474" y="277" type="line"/>
    </contour>
    <contour>
      <point x="342" y="357" type="move" name="top"/>
    </contour>
    <contour>
      <point x="342" y="0" type="move" name="bottom"/>
    </contour>
  </outline>
</glyph>
<glyph name="x.alt" format="1">
  <advance width="538"/>
  <outline>
    <contour>
      <point x="524" y="267" type="line"/>
      <point x="524" y="357" type="line"/>
      <point x="317" y="357" type="line"/>
      <point x="317" y="267" type="line"/>
    </contour>
    <contour>
      <point x="176" y="77" type="line"/>
      <point x="277" y="148" type="line"/>
      <point x="311" y="148" type="line"/>
      <point x="497" y="282" type="line"/>
      <point x="372" y="282" type="line"/>
      <point x="270" y="209" type="line"/>
      <point x="235" y="209" type="line"/>
      <point x="50" y="77" type="line"/>
    </contour>
    <contour>
      <point x="232" y="-1" type="line"/>
      <point x="232" y="89" type="line"/>
      <point x="25" y="89" type="line"/>
      <point x="25" y="-1" type="line"/>
    </contour>
    <contour>
      <point x="123" y="210" type="line"/>
      <point x="123" y="247"/>
      <point x="129" y="271"/>
      <point x="161" y="271" type="curve" smooth="yes"/>
      <point x="191" y="271"/>
      <point x="204" y="231"/>
      <point x="222" y="168" type="curve"/>
      <point x="227" y="169" type="line"/>
      <point x="252" y="77"/>
      <point x="303" y="-8"/>
      <point x="390" y="-8" type="curve" smooth="yes"/>
      <point x="461" y="-8"/>
      <point x="521" y="37"/>
      <point x="528" y="138" type="curve"/>
      <point x="429" y="150" type="line"/>
      <point x="429" y="106"/>
      <point x="409" y="89"/>
      <point x="390" y="89" type="curve" smooth="yes"/>
      <point x="362" y="89"/>
      <point x="343" y="128"/>
      <point x="324" y="192" type="curve"/>
      <point x="319" y="191" type="line"/>
      <point x="294" y="283"/>
      <point x="250" y="367"/>
      <point x="161" y="367" type="curve" smooth="yes"/>
      <point x="77" y="367"/>
      <point x="35" y="316"/>
      <point x="25" y="222" type="curve"/>
    </contour>
    <contour>
      <point x="270" y="357" type="move" name="top"/>
    </contour>
    <contour>
      <point x="270" y="0" type="move" name="bottom"/>
    </contour>
  </outline>
</glyph>
<glyph name="z.alt" format="1">
  <advance width="479"/>
  <outline>
    <contour>
      <point x="433" y="0" type="line"/>
      <point x="433" y="154" type="line"/>
      <point x="337" y="154" type="line"/>
      <point x="337" y="90" type="line"/>
      <point x="254" y="90" type="line"/>
      <point x="203" y="76" type="line"/>
      <point x="202" y="79" type="line"/>
      <point x="253" y="112" type="line"/>
      <point x="434" y="293" type="line"/>
      <point x="434" y="355" type="line"/>
      <point x="66" y="355" type="line"/>
      <point x="66" y="201" type="line"/>
      <point x="162" y="201" type="line"/>
      <point x="162" y="265" type="line"/>
      <point x="236" y="265" type="line"/>
      <point x="287" y="279" type="line"/>
      <point x="288" y="276" type="line"/>
      <point x="238" y="243" type="line"/>
      <point x="60" y="62" type="line"/>
      <point x="60" y="0" type="line"/>
    </contour>
    <contour>
      <point x="279" y="367" type="move" name="top"/>
    </contour>
    <contour>
      <point x="281" y="-10" type="move" name="bottom"/>
    </contour>
  </outline>
</glyph>
